M48
;DRILL file {KiCad 4.0.4+dfsg1-stable} date Thu Jan 19 15:29:30 2017
;FORMAT={-:-/ absolute / metric / decimal}
FMAT,2
METRIC,TZ
T1C0.600
T2C1.000
T3C1.300
%
G90
G05
M71
T1
X-5.855Y2.235
X-4.94Y-0.432
X-4.181Y-15.225
X2.489Y4.864
X3.594Y1.067
X3.594Y-1.473
X5.319Y2.936
X6.604Y-10.986
X7.889Y-5.418
X10.739Y3.467
X13.876Y-0.137
X14.176Y-4.608
T2
X-14.922Y7.155
X-14.922Y-7.155
X-13.652Y9.355
X-13.652Y-9.355
X-11.445Y-7.541
X-7.493Y11.709
X-4.953Y11.709
X-1.27Y16.447
X-1.27Y-16.51
X1.079Y-13.576
X1.27Y16.447
X1.27Y-16.51
X4.204Y-11.976
X4.341Y-17.851
X6.101Y12.489
X6.101Y9.949
X6.101Y7.409
X6.134Y-13.957
X8.674Y-13.957
X13.652Y9.355
X13.652Y-9.355
X14.922Y7.155
X14.922Y-7.155
T3
X-15.875Y2.984
X-15.875Y-2.095
T0
M30
