G04 #@! TF.FileFunction,Other,Fab,Top*
%FSLAX46Y46*%
G04 Gerber Fmt 4.6, Leading zero omitted, Abs format (unit mm)*
G04 Created by KiCad (PCBNEW 4.0.4+dfsg1-stable) date Thu Jan 19 15:29:11 2017*
%MOMM*%
%LPD*%
G01*
G04 APERTURE LIST*
%ADD10C,0.100000*%
%ADD11C,0.150000*%
G04 APERTURE END LIST*
D10*
D11*
X14762981Y-5931443D02*
X13896956Y-5431443D01*
X14079968Y-6114456D02*
X14579968Y-5248430D01*
X5154100Y-14707300D02*
X5154100Y-15707300D01*
X5654100Y-15207300D02*
X4654100Y-15207300D01*
X2250000Y-15760000D02*
X2250000Y-14760000D01*
X1750000Y-15260000D02*
X2750000Y-15260000D01*
X-16062019Y-6681443D02*
X-16928044Y-7181443D01*
X-16245032Y-7364456D02*
X-16745032Y-6498430D01*
X-13812019Y10578557D02*
X-14678044Y11078557D01*
X-14495032Y10395544D02*
X-13995032Y11261570D01*
X-3973000Y12459400D02*
X-3973000Y13459400D01*
X-4473000Y12959400D02*
X-3473000Y12959400D01*
X2250000Y17196500D02*
X2250000Y18196500D01*
X1750000Y17696500D02*
X2750000Y17696500D01*
X12512981Y9828557D02*
X11646956Y9328557D01*
X12329968Y9145544D02*
X11829968Y10011570D01*
X-12508716Y-10025641D02*
X-12508716Y-9025641D01*
X-12127763Y-9025641D01*
X-12032525Y-9073260D01*
X-11984906Y-9120879D01*
X-11937287Y-9216117D01*
X-11937287Y-9358974D01*
X-11984906Y-9454212D01*
X-12032525Y-9501831D01*
X-12127763Y-9549450D01*
X-12508716Y-9549450D01*
X-11556335Y-9739927D02*
X-11080144Y-9739927D01*
X-11651573Y-10025641D02*
X-11318240Y-9025641D01*
X-10984906Y-10025641D01*
X-10651573Y-10025641D02*
X-10651573Y-9025641D01*
X-10413478Y-9025641D01*
X-10270620Y-9073260D01*
X-10175382Y-9168498D01*
X-10127763Y-9263736D01*
X-10080144Y-9454212D01*
X-10080144Y-9597070D01*
X-10127763Y-9787546D01*
X-10175382Y-9882784D01*
X-10270620Y-9978022D01*
X-10413478Y-10025641D01*
X-10651573Y-10025641D01*
X1331862Y-3401677D02*
X1379481Y-3306439D01*
X1379481Y-3115963D01*
X1331862Y-3020724D01*
X1236624Y-2973105D01*
X1189005Y-2973105D01*
X1093767Y-3020724D01*
X1046148Y-3115963D01*
X1046148Y-3258820D01*
X998529Y-3354058D01*
X903290Y-3401677D01*
X855671Y-3401677D01*
X760433Y-3354058D01*
X712814Y-3258820D01*
X712814Y-3115963D01*
X760433Y-3020724D01*
X712814Y-2544534D02*
X1712814Y-2544534D01*
X760433Y-2544534D02*
X712814Y-2449296D01*
X712814Y-2258819D01*
X760433Y-2163581D01*
X808052Y-2115962D01*
X903290Y-2068343D01*
X1189005Y-2068343D01*
X1284243Y-2115962D01*
X1331862Y-2163581D01*
X1379481Y-2258819D01*
X1379481Y-2449296D01*
X1331862Y-2544534D01*
X1331862Y-1258819D02*
X1379481Y-1354057D01*
X1379481Y-1544534D01*
X1331862Y-1639772D01*
X1236624Y-1687391D01*
X855671Y-1687391D01*
X760433Y-1639772D01*
X712814Y-1544534D01*
X712814Y-1354057D01*
X760433Y-1258819D01*
X855671Y-1211200D01*
X950910Y-1211200D01*
X1046148Y-1687391D01*
X1379481Y-354057D02*
X855671Y-354057D01*
X760433Y-401676D01*
X712814Y-496914D01*
X712814Y-687391D01*
X760433Y-782629D01*
X1331862Y-354057D02*
X1379481Y-449295D01*
X1379481Y-687391D01*
X1331862Y-782629D01*
X1236624Y-830248D01*
X1141386Y-830248D01*
X1046148Y-782629D01*
X998529Y-687391D01*
X998529Y-449295D01*
X950910Y-354057D01*
X1379481Y122133D02*
X379481Y122133D01*
X998529Y217371D02*
X1379481Y503086D01*
X712814Y503086D02*
X1093767Y122133D01*
X1331862Y1312610D02*
X1379481Y1217372D01*
X1379481Y1026895D01*
X1331862Y931657D01*
X1236624Y884038D01*
X855671Y884038D01*
X760433Y931657D01*
X712814Y1026895D01*
X712814Y1217372D01*
X760433Y1312610D01*
X855671Y1360229D01*
X950910Y1360229D01*
X1046148Y884038D01*
X1379481Y1788800D02*
X712814Y1788800D01*
X903290Y1788800D02*
X808052Y1836419D01*
X760433Y1884038D01*
X712814Y1979276D01*
X712814Y2074515D01*
X-8117857Y-2139309D02*
X-8070238Y-2186928D01*
X-8022619Y-2329785D01*
X-8022619Y-2425023D01*
X-8070238Y-2567881D01*
X-8165476Y-2663119D01*
X-8260714Y-2710738D01*
X-8451190Y-2758357D01*
X-8594048Y-2758357D01*
X-8784524Y-2710738D01*
X-8879762Y-2663119D01*
X-8975000Y-2567881D01*
X-9022619Y-2425023D01*
X-9022619Y-2329785D01*
X-8975000Y-2186928D01*
X-8927381Y-2139309D01*
X-9022619Y-1520262D02*
X-9022619Y-1329785D01*
X-8975000Y-1234547D01*
X-8879762Y-1139309D01*
X-8689286Y-1091690D01*
X-8355952Y-1091690D01*
X-8165476Y-1139309D01*
X-8070238Y-1234547D01*
X-8022619Y-1329785D01*
X-8022619Y-1520262D01*
X-8070238Y-1615500D01*
X-8165476Y-1710738D01*
X-8355952Y-1758357D01*
X-8689286Y-1758357D01*
X-8879762Y-1710738D01*
X-8975000Y-1615500D01*
X-9022619Y-1520262D01*
X-8022619Y-663119D02*
X-9022619Y-663119D01*
X-8022619Y-91690D01*
X-9022619Y-91690D01*
X-8022619Y384500D02*
X-9022619Y384500D01*
X-8022619Y955929D01*
X-9022619Y955929D01*
X-7927381Y1194024D02*
X-7927381Y1955929D01*
X-9022619Y2384500D02*
X-9022619Y2479739D01*
X-8975000Y2574977D01*
X-8927381Y2622596D01*
X-8832143Y2670215D01*
X-8641667Y2717834D01*
X-8403571Y2717834D01*
X-8213095Y2670215D01*
X-8117857Y2622596D01*
X-8070238Y2574977D01*
X-8022619Y2479739D01*
X-8022619Y2384500D01*
X-8070238Y2289262D01*
X-8117857Y2241643D01*
X-8213095Y2194024D01*
X-8403571Y2146405D01*
X-8641667Y2146405D01*
X-8832143Y2194024D01*
X-8927381Y2241643D01*
X-8975000Y2289262D01*
X-9022619Y2384500D01*
X-8022619Y3670215D02*
X-8022619Y3098786D01*
X-8022619Y3384500D02*
X-9022619Y3384500D01*
X-8879762Y3289262D01*
X-8784524Y3194024D01*
X-8736905Y3098786D01*
X-9022619Y4003548D02*
X-8022619Y4670215D01*
X-9022619Y4670215D02*
X-8022619Y4003548D01*
X-9022619Y5241643D02*
X-9022619Y5336882D01*
X-8975000Y5432120D01*
X-8927381Y5479739D01*
X-8832143Y5527358D01*
X-8641667Y5574977D01*
X-8403571Y5574977D01*
X-8213095Y5527358D01*
X-8117857Y5479739D01*
X-8070238Y5432120D01*
X-8022619Y5336882D01*
X-8022619Y5241643D01*
X-8070238Y5146405D01*
X-8117857Y5098786D01*
X-8213095Y5051167D01*
X-8403571Y5003548D01*
X-8641667Y5003548D01*
X-8832143Y5051167D01*
X-8927381Y5098786D01*
X-8975000Y5146405D01*
X-9022619Y5241643D01*
X-8927381Y5955929D02*
X-8975000Y6003548D01*
X-9022619Y6098786D01*
X-9022619Y6336882D01*
X-8975000Y6432120D01*
X-8927381Y6479739D01*
X-8832143Y6527358D01*
X-8736905Y6527358D01*
X-8594048Y6479739D01*
X-8022619Y5908310D01*
X-8022619Y6527358D01*
X8839461Y5671418D02*
X7839461Y5671418D01*
X8839461Y6719037D02*
X8363270Y6385703D01*
X8839461Y6147608D02*
X7839461Y6147608D01*
X7839461Y6528561D01*
X7887080Y6623799D01*
X7934699Y6671418D01*
X8029937Y6719037D01*
X8172794Y6719037D01*
X8268032Y6671418D01*
X8315651Y6623799D01*
X8363270Y6528561D01*
X8363270Y6147608D01*
X8934699Y6909513D02*
X8934699Y7671418D01*
X8839461Y8480942D02*
X8363270Y8147608D01*
X8839461Y7909513D02*
X7839461Y7909513D01*
X7839461Y8290466D01*
X7887080Y8385704D01*
X7934699Y8433323D01*
X8029937Y8480942D01*
X8172794Y8480942D01*
X8268032Y8433323D01*
X8315651Y8385704D01*
X8363270Y8290466D01*
X8363270Y7909513D01*
X8315651Y8909513D02*
X8315651Y9242847D01*
X8839461Y9385704D02*
X8839461Y8909513D01*
X7839461Y8909513D01*
X7839461Y9385704D01*
X8744223Y10385704D02*
X8791842Y10338085D01*
X8839461Y10195228D01*
X8839461Y10099990D01*
X8791842Y9957132D01*
X8696604Y9861894D01*
X8601366Y9814275D01*
X8410890Y9766656D01*
X8268032Y9766656D01*
X8077556Y9814275D01*
X7982318Y9861894D01*
X7887080Y9957132D01*
X7839461Y10099990D01*
X7839461Y10195228D01*
X7887080Y10338085D01*
X7934699Y10385704D01*
X8315651Y10814275D02*
X8315651Y11147609D01*
X8839461Y11290466D02*
X8839461Y10814275D01*
X7839461Y10814275D01*
X7839461Y11290466D01*
X8839461Y11719037D02*
X7839461Y11719037D01*
X7839461Y12052370D02*
X8839461Y12385703D01*
X7839461Y12719037D01*
X8315651Y13052370D02*
X8315651Y13385704D01*
X8839461Y13528561D02*
X8839461Y13052370D01*
X7839461Y13052370D01*
X7839461Y13528561D01*
X8839461Y14528561D02*
X8363270Y14195227D01*
X8839461Y13957132D02*
X7839461Y13957132D01*
X7839461Y14338085D01*
X7887080Y14433323D01*
X7934699Y14480942D01*
X8029937Y14528561D01*
X8172794Y14528561D01*
X8268032Y14480942D01*
X8315651Y14433323D01*
X8363270Y14338085D01*
X8363270Y13957132D01*
X3277384Y-20335501D02*
X3277384Y-19335501D01*
X3658337Y-19335501D01*
X3753575Y-19383120D01*
X3801194Y-19430739D01*
X3848813Y-19525977D01*
X3848813Y-19668834D01*
X3801194Y-19764072D01*
X3753575Y-19811691D01*
X3658337Y-19859310D01*
X3277384Y-19859310D01*
X4229765Y-20049787D02*
X4705956Y-20049787D01*
X4134527Y-20335501D02*
X4467860Y-19335501D01*
X4801194Y-20335501D01*
X5134527Y-20335501D02*
X5134527Y-19335501D01*
X5372622Y-19335501D01*
X5515480Y-19383120D01*
X5610718Y-19478358D01*
X5658337Y-19573596D01*
X5705956Y-19764072D01*
X5705956Y-19906930D01*
X5658337Y-20097406D01*
X5610718Y-20192644D01*
X5515480Y-20287882D01*
X5372622Y-20335501D01*
X5134527Y-20335501D01*
X16024Y-16060681D02*
X16024Y-15060681D01*
X396977Y-15060681D01*
X492215Y-15108300D01*
X539834Y-15155919D01*
X587453Y-15251157D01*
X587453Y-15394014D01*
X539834Y-15489252D01*
X492215Y-15536871D01*
X396977Y-15584490D01*
X16024Y-15584490D01*
X968405Y-15774967D02*
X1444596Y-15774967D01*
X873167Y-16060681D02*
X1206500Y-15060681D01*
X1539834Y-16060681D01*
X1873167Y-16060681D02*
X1873167Y-15060681D01*
X2111262Y-15060681D01*
X2254120Y-15108300D01*
X2349358Y-15203538D01*
X2396977Y-15298776D01*
X2444596Y-15489252D01*
X2444596Y-15632110D01*
X2396977Y-15822586D01*
X2349358Y-15917824D01*
X2254120Y-16013062D01*
X2111262Y-16060681D01*
X1873167Y-16060681D01*
X8520604Y-10433843D02*
X8108211Y-10195747D01*
X8608211Y-9329722D01*
X9071184Y-10146877D02*
X9359860Y-10313544D01*
X9221673Y-10838605D02*
X8809279Y-10600509D01*
X9309279Y-9734484D01*
X9721673Y-9972580D01*
X9592826Y-11052890D02*
X10092826Y-10186865D01*
X10299023Y-10305913D01*
X10398932Y-10418581D01*
X10433791Y-10548678D01*
X10427411Y-10654966D01*
X10373413Y-10843733D01*
X10301984Y-10967452D01*
X10165506Y-11108599D01*
X10076648Y-11167268D01*
X9946551Y-11202128D01*
X9799023Y-11171938D01*
X9592826Y-11052890D01*
X10205036Y-11516321D02*
X10864865Y-11897274D01*
X11101251Y-11868794D02*
X11201159Y-11981462D01*
X11407356Y-12100510D01*
X11513644Y-12106890D01*
X11578693Y-12089460D01*
X11667551Y-12030791D01*
X11715170Y-11948312D01*
X11721550Y-11842024D01*
X11704120Y-11776976D01*
X11645452Y-11688116D01*
X11504303Y-11551639D01*
X11445634Y-11462780D01*
X11428205Y-11397732D01*
X11434584Y-11291444D01*
X11482203Y-11208965D01*
X11571062Y-11150296D01*
X11636110Y-11132866D01*
X11742398Y-11139246D01*
X11948596Y-11258294D01*
X12048504Y-11370962D01*
X11943467Y-12410033D02*
X12276800Y-11832683D01*
X12229181Y-11915161D02*
X12294230Y-11897732D01*
X12400518Y-11904111D01*
X12524237Y-11975540D01*
X12582906Y-12064399D01*
X12576526Y-12170687D01*
X12314621Y-12624319D01*
X12576526Y-12170687D02*
X12665384Y-12112018D01*
X12771672Y-12118397D01*
X12895390Y-12189826D01*
X12954059Y-12278684D01*
X12947679Y-12384972D01*
X12685774Y-12838605D01*
X13469321Y-13290986D02*
X13731226Y-12837353D01*
X13737606Y-12731065D01*
X13678937Y-12642207D01*
X13513979Y-12546968D01*
X13407691Y-12540589D01*
X13493131Y-13249747D02*
X13386843Y-13243367D01*
X13180646Y-13124319D01*
X13121977Y-13035461D01*
X13128356Y-12929173D01*
X13175975Y-12846694D01*
X13264834Y-12788025D01*
X13371122Y-12794405D01*
X13577319Y-12913453D01*
X13683607Y-12919833D01*
X14005432Y-13600509D02*
X13946763Y-13511651D01*
X13953142Y-13405363D01*
X14381714Y-12663056D01*
X14459065Y-13862414D02*
X14400396Y-13773556D01*
X14406775Y-13667268D01*
X14835347Y-12924961D01*
X12174481Y-17862157D02*
X12174481Y-18338348D01*
X11174481Y-18338348D01*
X11650671Y-17528824D02*
X11650671Y-17195490D01*
X12174481Y-17052633D02*
X12174481Y-17528824D01*
X11174481Y-17528824D01*
X11174481Y-17052633D01*
X12174481Y-16624062D02*
X11174481Y-16624062D01*
X11174481Y-16385967D01*
X11222100Y-16243109D01*
X11317338Y-16147871D01*
X11412576Y-16100252D01*
X11603052Y-16052633D01*
X11745910Y-16052633D01*
X11936386Y-16100252D01*
X12031624Y-16147871D01*
X12126862Y-16243109D01*
X12174481Y-16385967D01*
X12174481Y-16624062D01*
X12269719Y-15862157D02*
X12269719Y-15100252D01*
X12126862Y-14909776D02*
X12174481Y-14766919D01*
X12174481Y-14528823D01*
X12126862Y-14433585D01*
X12079243Y-14385966D01*
X11984005Y-14338347D01*
X11888767Y-14338347D01*
X11793529Y-14385966D01*
X11745910Y-14433585D01*
X11698290Y-14528823D01*
X11650671Y-14719300D01*
X11603052Y-14814538D01*
X11555433Y-14862157D01*
X11460195Y-14909776D01*
X11364957Y-14909776D01*
X11269719Y-14862157D01*
X11222100Y-14814538D01*
X11174481Y-14719300D01*
X11174481Y-14481204D01*
X11222100Y-14338347D01*
X12174481Y-13909776D02*
X11507814Y-13909776D01*
X11603052Y-13909776D02*
X11555433Y-13862157D01*
X11507814Y-13766919D01*
X11507814Y-13624061D01*
X11555433Y-13528823D01*
X11650671Y-13481204D01*
X12174481Y-13481204D01*
X11650671Y-13481204D02*
X11555433Y-13433585D01*
X11507814Y-13338347D01*
X11507814Y-13195490D01*
X11555433Y-13100252D01*
X11650671Y-13052633D01*
X12174481Y-13052633D01*
X12174481Y-12147871D02*
X11650671Y-12147871D01*
X11555433Y-12195490D01*
X11507814Y-12290728D01*
X11507814Y-12481205D01*
X11555433Y-12576443D01*
X12126862Y-12147871D02*
X12174481Y-12243109D01*
X12174481Y-12481205D01*
X12126862Y-12576443D01*
X12031624Y-12624062D01*
X11936386Y-12624062D01*
X11841148Y-12576443D01*
X11793529Y-12481205D01*
X11793529Y-12243109D01*
X11745910Y-12147871D01*
X12174481Y-11528824D02*
X12126862Y-11624062D01*
X12031624Y-11671681D01*
X11174481Y-11671681D01*
X12174481Y-11005014D02*
X12126862Y-11100252D01*
X12031624Y-11147871D01*
X11174481Y-11147871D01*
X-3865619Y-18890857D02*
X-3865619Y-19367048D01*
X-4865619Y-19367048D01*
X-4389429Y-18557524D02*
X-4389429Y-18224190D01*
X-3865619Y-18081333D02*
X-3865619Y-18557524D01*
X-4865619Y-18557524D01*
X-4865619Y-18081333D01*
X-3865619Y-17652762D02*
X-4865619Y-17652762D01*
X-4865619Y-17414667D01*
X-4818000Y-17271809D01*
X-4722762Y-17176571D01*
X-4627524Y-17128952D01*
X-4437048Y-17081333D01*
X-4294190Y-17081333D01*
X-4103714Y-17128952D01*
X-4008476Y-17176571D01*
X-3913238Y-17271809D01*
X-3865619Y-17414667D01*
X-3865619Y-17652762D01*
X-3770381Y-16890857D02*
X-3770381Y-16128952D01*
X-3913238Y-15938476D02*
X-3865619Y-15795619D01*
X-3865619Y-15557523D01*
X-3913238Y-15462285D01*
X-3960857Y-15414666D01*
X-4056095Y-15367047D01*
X-4151333Y-15367047D01*
X-4246571Y-15414666D01*
X-4294190Y-15462285D01*
X-4341810Y-15557523D01*
X-4389429Y-15748000D01*
X-4437048Y-15843238D01*
X-4484667Y-15890857D01*
X-4579905Y-15938476D01*
X-4675143Y-15938476D01*
X-4770381Y-15890857D01*
X-4818000Y-15843238D01*
X-4865619Y-15748000D01*
X-4865619Y-15509904D01*
X-4818000Y-15367047D01*
X-3865619Y-14938476D02*
X-4532286Y-14938476D01*
X-4437048Y-14938476D02*
X-4484667Y-14890857D01*
X-4532286Y-14795619D01*
X-4532286Y-14652761D01*
X-4484667Y-14557523D01*
X-4389429Y-14509904D01*
X-3865619Y-14509904D01*
X-4389429Y-14509904D02*
X-4484667Y-14462285D01*
X-4532286Y-14367047D01*
X-4532286Y-14224190D01*
X-4484667Y-14128952D01*
X-4389429Y-14081333D01*
X-3865619Y-14081333D01*
X-3865619Y-13176571D02*
X-4389429Y-13176571D01*
X-4484667Y-13224190D01*
X-4532286Y-13319428D01*
X-4532286Y-13509905D01*
X-4484667Y-13605143D01*
X-3913238Y-13176571D02*
X-3865619Y-13271809D01*
X-3865619Y-13509905D01*
X-3913238Y-13605143D01*
X-4008476Y-13652762D01*
X-4103714Y-13652762D01*
X-4198952Y-13605143D01*
X-4246571Y-13509905D01*
X-4246571Y-13271809D01*
X-4294190Y-13176571D01*
X-3865619Y-12557524D02*
X-3913238Y-12652762D01*
X-4008476Y-12700381D01*
X-4865619Y-12700381D01*
X-3865619Y-12033714D02*
X-3913238Y-12128952D01*
X-4008476Y-12176571D01*
X-4865619Y-12176571D01*
X-15284015Y-14338700D02*
X-15696408Y-14576795D01*
X-16196408Y-13710770D01*
X-15257245Y-13718401D02*
X-14968569Y-13551734D01*
X-14582946Y-13933938D02*
X-14995340Y-14172033D01*
X-15495340Y-13306008D01*
X-15082946Y-13067913D01*
X-14211793Y-13719652D02*
X-14711793Y-12853627D01*
X-14505596Y-12734580D01*
X-14358068Y-12704390D01*
X-14227971Y-12739249D01*
X-14139113Y-12797918D01*
X-14002635Y-12939066D01*
X-13931206Y-13062785D01*
X-13877208Y-13251551D01*
X-13870828Y-13357839D01*
X-13905687Y-13487937D01*
X-14005596Y-13600605D01*
X-14211793Y-13719652D01*
X-13504345Y-13421178D02*
X-12844516Y-13040226D01*
X-12750987Y-12821270D02*
X-12603460Y-12791081D01*
X-12397263Y-12672033D01*
X-12338594Y-12583175D01*
X-12321164Y-12518126D01*
X-12327544Y-12411838D01*
X-12375163Y-12329359D01*
X-12464021Y-12270690D01*
X-12529070Y-12253261D01*
X-12635358Y-12259639D01*
X-12824125Y-12313639D01*
X-12930414Y-12320018D01*
X-12995462Y-12302589D01*
X-13084321Y-12243920D01*
X-13131940Y-12161441D01*
X-13138319Y-12055153D01*
X-13120890Y-11990104D01*
X-13062220Y-11901246D01*
X-12856023Y-11782198D01*
X-12708496Y-11752009D01*
X-11861152Y-12362509D02*
X-12194486Y-11785159D01*
X-12146867Y-11867637D02*
X-12129437Y-11802589D01*
X-12070768Y-11713730D01*
X-11947049Y-11642301D01*
X-11840761Y-11635922D01*
X-11751903Y-11694591D01*
X-11489998Y-12148223D01*
X-11751903Y-11694591D02*
X-11758283Y-11588303D01*
X-11699614Y-11499444D01*
X-11575896Y-11428016D01*
X-11469608Y-11421636D01*
X-11380750Y-11480305D01*
X-11118845Y-11933938D01*
X-10335298Y-11481557D02*
X-10597203Y-11027924D01*
X-10686061Y-10969255D01*
X-10792349Y-10975635D01*
X-10957307Y-11070873D01*
X-11015976Y-11159732D01*
X-10359107Y-11440318D02*
X-10417776Y-11529176D01*
X-10623973Y-11648224D01*
X-10730261Y-11654604D01*
X-10819120Y-11595935D01*
X-10866739Y-11513456D01*
X-10873118Y-11407168D01*
X-10814449Y-11318310D01*
X-10608252Y-11199262D01*
X-10549583Y-11110404D01*
X-9799187Y-11172033D02*
X-9905475Y-11178413D01*
X-9994334Y-11119744D01*
X-10422905Y-10377437D01*
X-9345554Y-10910128D02*
X-9451842Y-10916508D01*
X-9540701Y-10857839D01*
X-9969272Y-10115532D01*
X-20054396Y6076157D02*
X-20466789Y6314253D01*
X-19966789Y7180278D01*
X-19503816Y6363123D02*
X-19215140Y6196456D01*
X-19353327Y5671395D02*
X-19765721Y5909491D01*
X-19265721Y6775516D01*
X-18853327Y6537420D01*
X-18982174Y5457110D02*
X-18482174Y6323135D01*
X-18275977Y6204087D01*
X-18176068Y6091419D01*
X-18141209Y5961322D01*
X-18147589Y5855034D01*
X-18201587Y5666267D01*
X-18273016Y5542548D01*
X-18409494Y5401401D01*
X-18498352Y5342732D01*
X-18628449Y5307872D01*
X-18775977Y5338062D01*
X-18982174Y5457110D01*
X-18369964Y4993679D02*
X-17710135Y4612726D01*
X-17473749Y4641206D02*
X-17373841Y4528538D01*
X-17167644Y4409490D01*
X-17061356Y4403110D01*
X-16996307Y4420540D01*
X-16907449Y4479209D01*
X-16859830Y4561688D01*
X-16853450Y4667976D01*
X-16870880Y4733024D01*
X-16929548Y4821884D01*
X-17070697Y4958361D01*
X-17129366Y5047220D01*
X-17146795Y5112268D01*
X-17140416Y5218556D01*
X-17092797Y5301035D01*
X-17003938Y5359704D01*
X-16938890Y5377134D01*
X-16832602Y5370754D01*
X-16626404Y5251706D01*
X-16526496Y5139038D01*
X-16631533Y4099967D02*
X-16298200Y4677317D01*
X-16345819Y4594839D02*
X-16280770Y4612268D01*
X-16174482Y4605889D01*
X-16050763Y4534460D01*
X-15992094Y4445601D01*
X-15998474Y4339313D01*
X-16260379Y3885681D01*
X-15998474Y4339313D02*
X-15909616Y4397982D01*
X-15803328Y4391603D01*
X-15679610Y4320174D01*
X-15620941Y4231316D01*
X-15627321Y4125028D01*
X-15889226Y3671395D01*
X-15105679Y3219014D02*
X-14843774Y3672647D01*
X-14837394Y3778935D01*
X-14896063Y3867793D01*
X-15061021Y3963032D01*
X-15167309Y3969411D01*
X-15081869Y3260253D02*
X-15188157Y3266633D01*
X-15394354Y3385681D01*
X-15453023Y3474539D01*
X-15446644Y3580827D01*
X-15399025Y3663306D01*
X-15310166Y3721975D01*
X-15203878Y3715595D01*
X-14997681Y3596547D01*
X-14891393Y3590167D01*
X-14569568Y2909491D02*
X-14628237Y2998349D01*
X-14621858Y3104637D01*
X-14193286Y3846944D01*
X-14115935Y2647586D02*
X-14174604Y2736444D01*
X-14168225Y2842732D01*
X-13739653Y3585039D01*
X-10088619Y9328543D02*
X-10088619Y8852352D01*
X-11088619Y8852352D01*
X-10612429Y9661876D02*
X-10612429Y9995210D01*
X-10088619Y10138067D02*
X-10088619Y9661876D01*
X-11088619Y9661876D01*
X-11088619Y10138067D01*
X-10088619Y10566638D02*
X-11088619Y10566638D01*
X-11088619Y10804733D01*
X-11041000Y10947591D01*
X-10945762Y11042829D01*
X-10850524Y11090448D01*
X-10660048Y11138067D01*
X-10517190Y11138067D01*
X-10326714Y11090448D01*
X-10231476Y11042829D01*
X-10136238Y10947591D01*
X-10088619Y10804733D01*
X-10088619Y10566638D01*
X-9993381Y11328543D02*
X-9993381Y12090448D01*
X-10136238Y12280924D02*
X-10088619Y12423781D01*
X-10088619Y12661877D01*
X-10136238Y12757115D01*
X-10183857Y12804734D01*
X-10279095Y12852353D01*
X-10374333Y12852353D01*
X-10469571Y12804734D01*
X-10517190Y12757115D01*
X-10564810Y12661877D01*
X-10612429Y12471400D01*
X-10660048Y12376162D01*
X-10707667Y12328543D01*
X-10802905Y12280924D01*
X-10898143Y12280924D01*
X-10993381Y12328543D01*
X-11041000Y12376162D01*
X-11088619Y12471400D01*
X-11088619Y12709496D01*
X-11041000Y12852353D01*
X-10088619Y13280924D02*
X-10755286Y13280924D01*
X-10660048Y13280924D02*
X-10707667Y13328543D01*
X-10755286Y13423781D01*
X-10755286Y13566639D01*
X-10707667Y13661877D01*
X-10612429Y13709496D01*
X-10088619Y13709496D01*
X-10612429Y13709496D02*
X-10707667Y13757115D01*
X-10755286Y13852353D01*
X-10755286Y13995210D01*
X-10707667Y14090448D01*
X-10612429Y14138067D01*
X-10088619Y14138067D01*
X-10088619Y15042829D02*
X-10612429Y15042829D01*
X-10707667Y14995210D01*
X-10755286Y14899972D01*
X-10755286Y14709495D01*
X-10707667Y14614257D01*
X-10136238Y15042829D02*
X-10088619Y14947591D01*
X-10088619Y14709495D01*
X-10136238Y14614257D01*
X-10231476Y14566638D01*
X-10326714Y14566638D01*
X-10421952Y14614257D01*
X-10469571Y14709495D01*
X-10469571Y14947591D01*
X-10517190Y15042829D01*
X-10088619Y15661876D02*
X-10136238Y15566638D01*
X-10231476Y15519019D01*
X-11088619Y15519019D01*
X-10088619Y16185686D02*
X-10136238Y16090448D01*
X-10231476Y16042829D01*
X-11088619Y16042829D01*
X-3865619Y14065643D02*
X-3865619Y13589452D01*
X-4865619Y13589452D01*
X-4389429Y14398976D02*
X-4389429Y14732310D01*
X-3865619Y14875167D02*
X-3865619Y14398976D01*
X-4865619Y14398976D01*
X-4865619Y14875167D01*
X-3865619Y15303738D02*
X-4865619Y15303738D01*
X-4865619Y15541833D01*
X-4818000Y15684691D01*
X-4722762Y15779929D01*
X-4627524Y15827548D01*
X-4437048Y15875167D01*
X-4294190Y15875167D01*
X-4103714Y15827548D01*
X-4008476Y15779929D01*
X-3913238Y15684691D01*
X-3865619Y15541833D01*
X-3865619Y15303738D01*
X-3770381Y16065643D02*
X-3770381Y16827548D01*
X-3913238Y17018024D02*
X-3865619Y17160881D01*
X-3865619Y17398977D01*
X-3913238Y17494215D01*
X-3960857Y17541834D01*
X-4056095Y17589453D01*
X-4151333Y17589453D01*
X-4246571Y17541834D01*
X-4294190Y17494215D01*
X-4341810Y17398977D01*
X-4389429Y17208500D01*
X-4437048Y17113262D01*
X-4484667Y17065643D01*
X-4579905Y17018024D01*
X-4675143Y17018024D01*
X-4770381Y17065643D01*
X-4818000Y17113262D01*
X-4865619Y17208500D01*
X-4865619Y17446596D01*
X-4818000Y17589453D01*
X-3865619Y18018024D02*
X-4532286Y18018024D01*
X-4437048Y18018024D02*
X-4484667Y18065643D01*
X-4532286Y18160881D01*
X-4532286Y18303739D01*
X-4484667Y18398977D01*
X-4389429Y18446596D01*
X-3865619Y18446596D01*
X-4389429Y18446596D02*
X-4484667Y18494215D01*
X-4532286Y18589453D01*
X-4532286Y18732310D01*
X-4484667Y18827548D01*
X-4389429Y18875167D01*
X-3865619Y18875167D01*
X-3865619Y19779929D02*
X-4389429Y19779929D01*
X-4484667Y19732310D01*
X-4532286Y19637072D01*
X-4532286Y19446595D01*
X-4484667Y19351357D01*
X-3913238Y19779929D02*
X-3865619Y19684691D01*
X-3865619Y19446595D01*
X-3913238Y19351357D01*
X-4008476Y19303738D01*
X-4103714Y19303738D01*
X-4198952Y19351357D01*
X-4246571Y19446595D01*
X-4246571Y19684691D01*
X-4294190Y19779929D01*
X-3865619Y20398976D02*
X-3913238Y20303738D01*
X-4008476Y20256119D01*
X-4865619Y20256119D01*
X-3865619Y20922786D02*
X-3913238Y20827548D01*
X-4008476Y20779929D01*
X-4865619Y20779929D01*
X13290985Y2171300D02*
X12878592Y1933205D01*
X12378592Y2799230D01*
X13317755Y2791599D02*
X13606431Y2958266D01*
X13992054Y2576062D02*
X13579660Y2337967D01*
X13079660Y3203992D01*
X13492054Y3442087D01*
X14363207Y2790348D02*
X13863207Y3656373D01*
X14069404Y3775420D01*
X14216932Y3805610D01*
X14347029Y3770751D01*
X14435887Y3712082D01*
X14572365Y3570934D01*
X14643794Y3447215D01*
X14697792Y3258449D01*
X14704172Y3152161D01*
X14669313Y3022063D01*
X14569404Y2909395D01*
X14363207Y2790348D01*
X15070655Y3088822D02*
X15730484Y3469774D01*
X15824013Y3688730D02*
X15971540Y3718919D01*
X16177737Y3837967D01*
X16236406Y3926825D01*
X16253836Y3991874D01*
X16247456Y4098162D01*
X16199837Y4180641D01*
X16110979Y4239310D01*
X16045930Y4256739D01*
X15939642Y4250361D01*
X15750875Y4196361D01*
X15644586Y4189982D01*
X15579538Y4207411D01*
X15490679Y4266080D01*
X15443060Y4348559D01*
X15436681Y4454847D01*
X15454110Y4519896D01*
X15512780Y4608754D01*
X15718977Y4727802D01*
X15866504Y4757991D01*
X16713848Y4147491D02*
X16380514Y4724841D01*
X16428133Y4642363D02*
X16445563Y4707411D01*
X16504232Y4796270D01*
X16627951Y4867699D01*
X16734239Y4874078D01*
X16823097Y4815409D01*
X17085002Y4361777D01*
X16823097Y4815409D02*
X16816717Y4921697D01*
X16875386Y5010556D01*
X16999104Y5081984D01*
X17105392Y5088364D01*
X17194250Y5029695D01*
X17456155Y4576062D01*
X18239702Y5028443D02*
X17977797Y5482076D01*
X17888939Y5540745D01*
X17782651Y5534365D01*
X17617693Y5439127D01*
X17559024Y5350268D01*
X18215893Y5069682D02*
X18157224Y4980824D01*
X17951027Y4861776D01*
X17844739Y4855396D01*
X17755880Y4914065D01*
X17708261Y4996544D01*
X17701882Y5102832D01*
X17760551Y5191690D01*
X17966748Y5310738D01*
X18025417Y5399596D01*
X18775813Y5337967D02*
X18669525Y5331587D01*
X18580666Y5390256D01*
X18152095Y6132563D01*
X19229446Y5599872D02*
X19123158Y5593492D01*
X19034299Y5652161D01*
X18605728Y6394468D01*
M02*
