G04 #@! TF.FileFunction,Other,User*
%FSLAX46Y46*%
G04 Gerber Fmt 4.6, Leading zero omitted, Abs format (unit mm)*
G04 Created by KiCad (PCBNEW 4.0.4+dfsg1-stable) date Thu Jan 19 15:29:11 2017*
%MOMM*%
%LPD*%
G01*
G04 APERTURE LIST*
%ADD10C,0.100000*%
%ADD11C,0.050000*%
%ADD12C,0.150000*%
G04 APERTURE END LIST*
D10*
D11*
X1135280Y-3511300D02*
X1135280Y488700D01*
X-464720Y-3511300D02*
X-464720Y488700D01*
X1135280Y-3511300D02*
X-464720Y-3511300D01*
X1135280Y488700D02*
X-464720Y488700D01*
X3032060Y13252060D02*
X3032060Y9552060D01*
X4532060Y13252060D02*
X4532060Y9552060D01*
X3032060Y13252060D02*
X4532060Y13252060D01*
X3032060Y9552060D02*
X4532060Y9552060D01*
X4872600Y3709100D02*
X1172600Y3709100D01*
X4872600Y2209100D02*
X1172600Y2209100D01*
X4872600Y3709100D02*
X4872600Y2209100D01*
X1172600Y3709100D02*
X1172600Y2209100D01*
X6438020Y-5012120D02*
X10138020Y-5012120D01*
X6438020Y-3512120D02*
X10138020Y-3512120D01*
X6438020Y-5012120D02*
X6438020Y-3512120D01*
X10138020Y-5012120D02*
X10138020Y-3512120D01*
X6293100Y2603600D02*
X10293100Y2603600D01*
X6293100Y4203600D02*
X10293100Y4203600D01*
X6293100Y2603600D02*
X6293100Y4203600D01*
X10293100Y2603600D02*
X10293100Y4203600D01*
X-1939680Y-1231200D02*
X-5639680Y-1231200D01*
X-1939680Y-2731200D02*
X-5639680Y-2731200D01*
X-1939680Y-1231200D02*
X-1939680Y-2731200D01*
X-5639680Y-1231200D02*
X-5639680Y-2731200D01*
X5860800Y-9233000D02*
X1860800Y-9233000D01*
X5860800Y-10833000D02*
X1860800Y-10833000D01*
X5860800Y-9233000D02*
X5860800Y-10833000D01*
X1860800Y-9233000D02*
X1860800Y-10833000D01*
X3123180Y4259680D02*
X7123180Y4259680D01*
X3123180Y5859680D02*
X7123180Y5859680D01*
X3123180Y4259680D02*
X3123180Y5859680D01*
X7123180Y4259680D02*
X7123180Y5859680D01*
X18052800Y3073300D02*
X14052800Y3073300D01*
X18052800Y1473300D02*
X14052800Y1473300D01*
X18052800Y3073300D02*
X18052800Y1473300D01*
X14052800Y3073300D02*
X14052800Y1473300D01*
X1501240Y13541760D02*
X1501240Y9541760D01*
X3101240Y13541760D02*
X3101240Y9541760D01*
X1501240Y13541760D02*
X3101240Y13541760D01*
X1501240Y9541760D02*
X3101240Y9541760D01*
X-1987300Y17665800D02*
X2012700Y17665800D01*
X-1987300Y19265800D02*
X2012700Y19265800D01*
X-1987300Y17665800D02*
X-1987300Y19265800D01*
X2012700Y17665800D02*
X2012700Y19265800D01*
X2356100Y-4317900D02*
X6356100Y-4317900D01*
X2356100Y-2717900D02*
X6356100Y-2717900D01*
X2356100Y-4317900D02*
X2356100Y-2717900D01*
X6356100Y-4317900D02*
X6356100Y-2717900D01*
X-11122820Y10133051D02*
X-13122820Y6668949D01*
X-9737180Y9333051D02*
X-11737180Y5868949D01*
X-11122820Y10133051D02*
X-9737180Y9333051D01*
X-13122820Y6668949D02*
X-11737180Y5868949D01*
X-14697800Y-10661471D02*
X-16697800Y-7197369D01*
X-16083440Y-11461471D02*
X-18083440Y-7997369D01*
X-14697800Y-10661471D02*
X-16083440Y-11461471D01*
X-16697800Y-7197369D02*
X-18083440Y-7997369D01*
X-8864500Y-1022600D02*
X-8864500Y-5022600D01*
X-7264500Y-1022600D02*
X-7264500Y-5022600D01*
X-8864500Y-1022600D02*
X-7264500Y-1022600D01*
X-8864500Y-5022600D02*
X-7264500Y-5022600D01*
X-2177800Y-19710300D02*
X1822200Y-19710300D01*
X-2177800Y-18110300D02*
X1822200Y-18110300D01*
X-2177800Y-19710300D02*
X-2177800Y-18110300D01*
X1822200Y-19710300D02*
X1822200Y-18110300D01*
X6362600Y-2215900D02*
X6362600Y1784100D01*
X4762600Y-2215900D02*
X4762600Y1784100D01*
X6362600Y-2215900D02*
X4762600Y-2215900D01*
X6362600Y1784100D02*
X4762600Y1784100D01*
X-8712300Y-5022600D02*
X-8712300Y-1022600D01*
X-10312300Y-5022600D02*
X-10312300Y-1022600D01*
X-8712300Y-5022600D02*
X-10312300Y-5022600D01*
X-8712300Y-1022600D02*
X-10312300Y-1022600D01*
X15722760Y-11270971D02*
X17722760Y-7806869D01*
X14337120Y-10470971D02*
X16337120Y-7006869D01*
X15722760Y-11270971D02*
X14337120Y-10470971D01*
X17722760Y-7806869D02*
X16337120Y-7006869D01*
X13679080Y6374309D02*
X11679080Y9838411D01*
X12293440Y5574309D02*
X10293440Y9038411D01*
X13679080Y6374309D02*
X12293440Y5574309D01*
X11679080Y9838411D02*
X10293440Y9038411D01*
X5386320Y-16890900D02*
X9386320Y-16890900D01*
X5386320Y-15290900D02*
X9386320Y-15290900D01*
X5386320Y-16890900D02*
X5386320Y-15290900D01*
X9386320Y-16890900D02*
X9386320Y-15290900D01*
X-8159500Y13093800D02*
X-4159500Y13093800D01*
X-8159500Y14693800D02*
X-4159500Y14693800D01*
X-8159500Y13093800D02*
X-8159500Y14693800D01*
X-4159500Y13093800D02*
X-4159500Y14693800D01*
X2502600Y-2446900D02*
X2502600Y1253100D01*
X1002600Y-2446900D02*
X1002600Y1253100D01*
X2502600Y-2446900D02*
X1002600Y-2446900D01*
X2502600Y1253100D02*
X1002600Y1253100D01*
X18433800Y1435000D02*
X14433800Y1435000D01*
X18433800Y-165000D02*
X14433800Y-165000D01*
X18433800Y1435000D02*
X18433800Y-165000D01*
X14433800Y1435000D02*
X14433800Y-165000D01*
X-1993020Y-13428280D02*
X-5693020Y-13428280D01*
X-1993020Y-14928280D02*
X-5693020Y-14928280D01*
X-1993020Y-13428280D02*
X-1993020Y-14928280D01*
X-5693020Y-13428280D02*
X-5693020Y-14928280D01*
X-9173500Y-3056600D02*
X1426500Y-3056600D01*
X-9173500Y-13656600D02*
X1426500Y-13656600D01*
X-9173500Y-3056600D02*
X-9173500Y-13656600D01*
X1426500Y-3056600D02*
X1426500Y-13656600D01*
D12*
X9979600Y-2992900D02*
X6629600Y-2992900D01*
X6629600Y-2992900D02*
X6679600Y2257100D01*
X6679600Y2257100D02*
X10029600Y2257100D01*
X10029600Y2257100D02*
X9979600Y-2992900D01*
M02*
