M48
;DRILL file {KiCad 4.0.4+dfsg1-stable} date Fri Dec 23 11:26:29 2016
;FORMAT={-:-/ absolute / metric / decimal}
FMAT,2
METRIC,TZ
T1C0.600
T2C1.000
T3C1.300
%
G90
G05
M71
T1
X-9.398Y7.874
X-8.191Y-5.588
X-6.286Y-11.747
X2.857Y1.079
X2.857Y-1.46
X3.175Y4.508
X6.096Y11.747
X8.572Y5.271
X10.477Y-4.445
T2
X-14.922Y7.155
X-14.922Y-7.155
X-13.652Y9.355
X-13.652Y-9.355
X-12.446Y12.827
X-8.128Y-13.779
X-7.366Y11.874
X-5.524Y-16.066
X-4.826Y11.874
X-1.27Y16.447
X-1.27Y-16.51
X1.27Y16.447
X1.27Y-16.51
X4.763Y-16.954
X6.223Y-9.779
X8.763Y-9.779
X13.652Y9.355
X13.652Y-9.355
X14.922Y7.155
X14.922Y-7.155
X16.637Y1.206
X16.637Y-1.333
X16.637Y-3.873
T3
X-15.875Y2.984
X-15.875Y-2.095
T0
M30
