G04 #@! TF.FileFunction,Other,Fab,Bot*
%FSLAX46Y46*%
G04 Gerber Fmt 4.6, Leading zero omitted, Abs format (unit mm)*
G04 Created by KiCad (PCBNEW 4.0.4+dfsg1-stable) date Fri Dec 23 11:26:22 2016*
%MOMM*%
%LPD*%
G01*
G04 APERTURE LIST*
%ADD10C,0.100000*%
%ADD11C,0.150000*%
G04 APERTURE END LIST*
D10*
D11*
X-11120000Y2817500D02*
X-11120000Y-3182500D01*
X-11120000Y-3182500D02*
X-4120000Y-3182500D01*
X-4120000Y-3182500D02*
X-4120000Y3817500D01*
X-4120000Y3817500D02*
X-10120000Y3817500D01*
X-10120000Y3817500D02*
X-11120000Y2817500D01*
X-1196601Y3559655D02*
X-1244220Y3512036D01*
X-1291839Y3416798D01*
X-1291839Y3178702D01*
X-1244220Y3083464D01*
X-1196601Y3035845D01*
X-1101363Y2988226D01*
X-1006125Y2988226D01*
X-863268Y3035845D01*
X-291839Y3607274D01*
X-291839Y2988226D01*
X-1196601Y2607274D02*
X-1244220Y2559655D01*
X-1291839Y2464417D01*
X-1291839Y2226321D01*
X-1244220Y2131083D01*
X-1196601Y2083464D01*
X-1101363Y2035845D01*
X-1006125Y2035845D01*
X-863268Y2083464D01*
X-291839Y2654893D01*
X-291839Y2035845D01*
X-1291839Y1416798D02*
X-1291839Y1321559D01*
X-1244220Y1226321D01*
X-1196601Y1178702D01*
X-1101363Y1131083D01*
X-910887Y1083464D01*
X-672791Y1083464D01*
X-482315Y1131083D01*
X-387077Y1178702D01*
X-339458Y1226321D01*
X-291839Y1321559D01*
X-291839Y1416798D01*
X-339458Y1512036D01*
X-387077Y1559655D01*
X-482315Y1607274D01*
X-672791Y1654893D01*
X-910887Y1654893D01*
X-1101363Y1607274D01*
X-1196601Y1559655D01*
X-1244220Y1512036D01*
X-1291839Y1416798D01*
X-1403333Y5365119D02*
X-1403333Y4888928D01*
X-1117619Y5460357D02*
X-2117619Y5127024D01*
X-1117619Y4793690D01*
X-2117619Y4603214D02*
X-2117619Y4031785D01*
X-1117619Y4317500D02*
X-2117619Y4317500D01*
X-1117619Y3698452D02*
X-2117619Y3698452D01*
X-1403333Y3365118D01*
X-2117619Y3031785D01*
X-1117619Y3031785D01*
X-1641429Y2555595D02*
X-1641429Y2222261D01*
X-1117619Y2079404D02*
X-1117619Y2555595D01*
X-2117619Y2555595D01*
X-2117619Y2079404D01*
X-2070000Y1127023D02*
X-2117619Y1222261D01*
X-2117619Y1365118D01*
X-2070000Y1507976D01*
X-1974762Y1603214D01*
X-1879524Y1650833D01*
X-1689048Y1698452D01*
X-1546190Y1698452D01*
X-1355714Y1650833D01*
X-1260476Y1603214D01*
X-1165238Y1507976D01*
X-1117619Y1365118D01*
X-1117619Y1269880D01*
X-1165238Y1127023D01*
X-1212857Y1079404D01*
X-1546190Y1079404D01*
X-1546190Y1269880D01*
X-1403333Y698452D02*
X-1403333Y222261D01*
X-1117619Y793690D02*
X-2117619Y460357D01*
X-1117619Y127023D01*
X-2117619Y-111072D02*
X-2117619Y-730120D01*
X-1736667Y-396786D01*
X-1736667Y-539644D01*
X-1689048Y-634882D01*
X-1641429Y-682501D01*
X-1546190Y-730120D01*
X-1308095Y-730120D01*
X-1212857Y-682501D01*
X-1165238Y-634882D01*
X-1117619Y-539644D01*
X-1117619Y-253929D01*
X-1165238Y-158691D01*
X-1212857Y-111072D01*
X-2022381Y-1111072D02*
X-2070000Y-1158691D01*
X-2117619Y-1253929D01*
X-2117619Y-1492025D01*
X-2070000Y-1587263D01*
X-2022381Y-1634882D01*
X-1927143Y-1682501D01*
X-1831905Y-1682501D01*
X-1689048Y-1634882D01*
X-1117619Y-1063453D01*
X-1117619Y-1682501D01*
X-1689048Y-2253929D02*
X-1736667Y-2158691D01*
X-1784286Y-2111072D01*
X-1879524Y-2063453D01*
X-1927143Y-2063453D01*
X-2022381Y-2111072D01*
X-2070000Y-2158691D01*
X-2117619Y-2253929D01*
X-2117619Y-2444406D01*
X-2070000Y-2539644D01*
X-2022381Y-2587263D01*
X-1927143Y-2634882D01*
X-1879524Y-2634882D01*
X-1784286Y-2587263D01*
X-1736667Y-2539644D01*
X-1689048Y-2444406D01*
X-1689048Y-2253929D01*
X-1641429Y-2158691D01*
X-1593810Y-2111072D01*
X-1498571Y-2063453D01*
X-1308095Y-2063453D01*
X-1212857Y-2111072D01*
X-1165238Y-2158691D01*
X-1117619Y-2253929D01*
X-1117619Y-2444406D01*
X-1165238Y-2539644D01*
X-1212857Y-2587263D01*
X-1308095Y-2634882D01*
X-1498571Y-2634882D01*
X-1593810Y-2587263D01*
X-1641429Y-2539644D01*
X-1689048Y-2444406D01*
X-1498571Y-3063453D02*
X-1498571Y-3825358D01*
X-1403333Y-4253929D02*
X-1403333Y-4730120D01*
X-1117619Y-4158691D02*
X-2117619Y-4492024D01*
X-1117619Y-4825358D01*
X-7469310Y55619D02*
X-7469310Y1055619D01*
X-8516929Y150857D02*
X-8469310Y103238D01*
X-8326453Y55619D01*
X-8231215Y55619D01*
X-8088357Y103238D01*
X-7993119Y198476D01*
X-7945500Y293714D01*
X-7897881Y484190D01*
X-7897881Y627048D01*
X-7945500Y817524D01*
X-7993119Y912762D01*
X-8088357Y1008000D01*
X-8231215Y1055619D01*
X-8326453Y1055619D01*
X-8469310Y1008000D01*
X-8516929Y960381D01*
X-9469310Y55619D02*
X-8897881Y55619D01*
X-9183595Y55619D02*
X-9183595Y1055619D01*
X-9088357Y912762D01*
X-8993119Y817524D01*
X-8897881Y769905D01*
X3849619Y12651952D02*
X3802000Y12747190D01*
X3706762Y12842428D01*
X3563905Y12985285D01*
X3516286Y13080524D01*
X3516286Y13175762D01*
X3754381Y13128143D02*
X3706762Y13223381D01*
X3611524Y13318619D01*
X3421048Y13366238D01*
X3087714Y13366238D01*
X2897238Y13318619D01*
X2802000Y13223381D01*
X2754381Y13128143D01*
X2754381Y12937666D01*
X2802000Y12842428D01*
X2897238Y12747190D01*
X3087714Y12699571D01*
X3421048Y12699571D01*
X3611524Y12747190D01*
X3706762Y12842428D01*
X3754381Y12937666D01*
X3754381Y13128143D01*
X3849619Y12509095D02*
X3849619Y11747190D01*
X3754381Y11509095D02*
X2754381Y11509095D01*
X3754381Y10937666D01*
X2754381Y10937666D01*
X3754381Y10461476D02*
X2754381Y10461476D01*
X2754381Y10080523D01*
X2802000Y9985285D01*
X2849619Y9937666D01*
X2944857Y9890047D01*
X3087714Y9890047D01*
X3182952Y9937666D01*
X3230571Y9985285D01*
X3278190Y10080523D01*
X3278190Y10461476D01*
X3754381Y9461476D02*
X2754381Y9461476D01*
X3754381Y8890047D01*
X2754381Y8890047D01*
X3849619Y8651952D02*
X3849619Y7890047D01*
X3230571Y7318618D02*
X3278190Y7175761D01*
X3325810Y7128142D01*
X3421048Y7080523D01*
X3563905Y7080523D01*
X3659143Y7128142D01*
X3706762Y7175761D01*
X3754381Y7270999D01*
X3754381Y7651952D01*
X2754381Y7651952D01*
X2754381Y7318618D01*
X2802000Y7223380D01*
X2849619Y7175761D01*
X2944857Y7128142D01*
X3040095Y7128142D01*
X3135333Y7175761D01*
X3182952Y7223380D01*
X3230571Y7318618D01*
X3230571Y7651952D01*
X3230571Y6651952D02*
X3230571Y6318618D01*
X3754381Y6175761D02*
X3754381Y6651952D01*
X2754381Y6651952D01*
X2754381Y6175761D01*
X3659143Y5175761D02*
X3706762Y5223380D01*
X3754381Y5366237D01*
X3754381Y5461475D01*
X3706762Y5604333D01*
X3611524Y5699571D01*
X3516286Y5747190D01*
X3325810Y5794809D01*
X3182952Y5794809D01*
X2992476Y5747190D01*
X2897238Y5699571D01*
X2802000Y5604333D01*
X2754381Y5461475D01*
X2754381Y5366237D01*
X2802000Y5223380D01*
X2849619Y5175761D01*
X12845015Y-1092461D02*
X12845015Y-92461D01*
X12273586Y-1092461D01*
X12273586Y-92461D01*
X11225967Y-997223D02*
X11273586Y-1044842D01*
X11416443Y-1092461D01*
X11511681Y-1092461D01*
X11654539Y-1044842D01*
X11749777Y-949604D01*
X11797396Y-854366D01*
X11845015Y-663890D01*
X11845015Y-521032D01*
X11797396Y-330556D01*
X11749777Y-235318D01*
X11654539Y-140080D01*
X11511681Y-92461D01*
X11416443Y-92461D01*
X11273586Y-140080D01*
X11225967Y-187699D01*
X10797396Y-1092461D02*
X10797396Y-92461D01*
X10416443Y-92461D01*
X10321205Y-140080D01*
X10273586Y-187699D01*
X10225967Y-282937D01*
X10225967Y-425794D01*
X10273586Y-521032D01*
X10321205Y-568651D01*
X10416443Y-616270D01*
X10797396Y-616270D01*
X9845015Y-187699D02*
X9797396Y-140080D01*
X9702158Y-92461D01*
X9464062Y-92461D01*
X9368824Y-140080D01*
X9321205Y-187699D01*
X9273586Y-282937D01*
X9273586Y-378175D01*
X9321205Y-521032D01*
X9892634Y-1092461D01*
X9273586Y-1092461D01*
X8702158Y-521032D02*
X8797396Y-473413D01*
X8845015Y-425794D01*
X8892634Y-330556D01*
X8892634Y-282937D01*
X8845015Y-187699D01*
X8797396Y-140080D01*
X8702158Y-92461D01*
X8511681Y-92461D01*
X8416443Y-140080D01*
X8368824Y-187699D01*
X8321205Y-282937D01*
X8321205Y-330556D01*
X8368824Y-425794D01*
X8416443Y-473413D01*
X8511681Y-521032D01*
X8702158Y-521032D01*
X8797396Y-568651D01*
X8845015Y-616270D01*
X8892634Y-711509D01*
X8892634Y-901985D01*
X8845015Y-997223D01*
X8797396Y-1044842D01*
X8702158Y-1092461D01*
X8511681Y-1092461D01*
X8416443Y-1044842D01*
X8368824Y-997223D01*
X8321205Y-901985D01*
X8321205Y-711509D01*
X8368824Y-616270D01*
X8416443Y-568651D01*
X8511681Y-521032D01*
X7845015Y-1092461D02*
X7654539Y-1092461D01*
X7559300Y-1044842D01*
X7511681Y-997223D01*
X7416443Y-854366D01*
X7368824Y-663890D01*
X7368824Y-282937D01*
X7416443Y-187699D01*
X7464062Y-140080D01*
X7559300Y-92461D01*
X7749777Y-92461D01*
X7845015Y-140080D01*
X7892634Y-187699D01*
X7940253Y-282937D01*
X7940253Y-521032D01*
X7892634Y-616270D01*
X7845015Y-663890D01*
X7749777Y-711509D01*
X7559300Y-711509D01*
X7464062Y-663890D01*
X7416443Y-616270D01*
X7368824Y-521032D01*
X6749777Y-92461D02*
X6654538Y-92461D01*
X6559300Y-140080D01*
X6511681Y-187699D01*
X6464062Y-282937D01*
X6416443Y-473413D01*
X6416443Y-711509D01*
X6464062Y-901985D01*
X6511681Y-997223D01*
X6559300Y-1044842D01*
X6654538Y-1092461D01*
X6749777Y-1092461D01*
X6845015Y-1044842D01*
X6892634Y-997223D01*
X6940253Y-901985D01*
X6987872Y-711509D01*
X6987872Y-473413D01*
X6940253Y-282937D01*
X6892634Y-187699D01*
X6845015Y-140080D01*
X6749777Y-92461D01*
X5987872Y-1092461D02*
X5987872Y-92461D01*
X5749777Y-92461D01*
X5606919Y-140080D01*
X5511681Y-235318D01*
X5464062Y-330556D01*
X5416443Y-521032D01*
X5416443Y-663890D01*
X5464062Y-854366D01*
X5511681Y-949604D01*
X5606919Y-1044842D01*
X5749777Y-1092461D01*
X5987872Y-1092461D01*
X4987872Y-1092461D02*
X4987872Y-92461D01*
X4654538Y-806747D01*
X4321205Y-92461D01*
X4321205Y-1092461D01*
X3273586Y-1092461D02*
X3606920Y-616270D01*
X3845015Y-1092461D02*
X3845015Y-92461D01*
X3464062Y-92461D01*
X3368824Y-140080D01*
X3321205Y-187699D01*
X3273586Y-282937D01*
X3273586Y-425794D01*
X3321205Y-521032D01*
X3368824Y-568651D01*
X3464062Y-616270D01*
X3845015Y-616270D01*
X2892634Y-187699D02*
X2845015Y-140080D01*
X2749777Y-92461D01*
X2511681Y-92461D01*
X2416443Y-140080D01*
X2368824Y-187699D01*
X2321205Y-282937D01*
X2321205Y-378175D01*
X2368824Y-521032D01*
X2940253Y-1092461D01*
X2321205Y-1092461D01*
X1368824Y-140080D02*
X1464062Y-92461D01*
X1606919Y-92461D01*
X1749777Y-140080D01*
X1845015Y-235318D01*
X1892634Y-330556D01*
X1940253Y-521032D01*
X1940253Y-663890D01*
X1892634Y-854366D01*
X1845015Y-949604D01*
X1749777Y-1044842D01*
X1606919Y-1092461D01*
X1511681Y-1092461D01*
X1368824Y-1044842D01*
X1321205Y-997223D01*
X1321205Y-663890D01*
X1511681Y-663890D01*
X14447781Y39666D02*
X14447781Y611095D01*
X14447781Y325381D02*
X13447781Y325381D01*
X13590638Y420619D01*
X13685876Y515857D01*
X13733495Y611095D01*
X13781114Y-817477D02*
X14447781Y-817477D01*
X13781114Y-388905D02*
X14304924Y-388905D01*
X14400162Y-436524D01*
X14447781Y-531762D01*
X14447781Y-674620D01*
X14400162Y-769858D01*
X14352543Y-817477D01*
X3229787Y2803899D02*
X3801216Y2803899D01*
X3515502Y2803899D02*
X3515502Y3803899D01*
X3610740Y3661042D01*
X3705978Y3565804D01*
X3801216Y3518185D01*
X2610740Y3803899D02*
X2515501Y3803899D01*
X2420263Y3756280D01*
X2372644Y3708661D01*
X2325025Y3613423D01*
X2277406Y3422947D01*
X2277406Y3184851D01*
X2325025Y2994375D01*
X2372644Y2899137D01*
X2420263Y2851518D01*
X2515501Y2803899D01*
X2610740Y2803899D01*
X2705978Y2851518D01*
X2753597Y2899137D01*
X2801216Y2994375D01*
X2848835Y3184851D01*
X2848835Y3422947D01*
X2801216Y3613423D01*
X2753597Y3708661D01*
X2705978Y3756280D01*
X2610740Y3803899D01*
X1658359Y3803899D02*
X1563120Y3803899D01*
X1467882Y3756280D01*
X1420263Y3708661D01*
X1372644Y3613423D01*
X1325025Y3422947D01*
X1325025Y3184851D01*
X1372644Y2994375D01*
X1420263Y2899137D01*
X1467882Y2851518D01*
X1563120Y2803899D01*
X1658359Y2803899D01*
X1753597Y2851518D01*
X1801216Y2899137D01*
X1848835Y2994375D01*
X1896454Y3184851D01*
X1896454Y3422947D01*
X1848835Y3613423D01*
X1801216Y3708661D01*
X1753597Y3756280D01*
X1658359Y3803899D01*
X896454Y3470566D02*
X896454Y2803899D01*
X896454Y3375328D02*
X848835Y3422947D01*
X753597Y3470566D01*
X610739Y3470566D01*
X515501Y3422947D01*
X467882Y3327709D01*
X467882Y2803899D01*
X8040666Y-2870381D02*
X8612095Y-2870381D01*
X8326381Y-2870381D02*
X8326381Y-1870381D01*
X8421619Y-2013238D01*
X8516857Y-2108476D01*
X8612095Y-2156095D01*
X7183523Y-2203714D02*
X7183523Y-2870381D01*
X7612095Y-2203714D02*
X7612095Y-2727524D01*
X7564476Y-2822762D01*
X7469238Y-2870381D01*
X7326380Y-2870381D01*
X7231142Y-2822762D01*
X7183523Y-2775143D01*
X7636806Y3014719D02*
X8208235Y3014719D01*
X7922521Y3014719D02*
X7922521Y4014719D01*
X8017759Y3871862D01*
X8112997Y3776624D01*
X8208235Y3729005D01*
X6779663Y3681386D02*
X6779663Y3014719D01*
X7208235Y3681386D02*
X7208235Y3157576D01*
X7160616Y3062338D01*
X7065378Y3014719D01*
X6922520Y3014719D01*
X6827282Y3062338D01*
X6779663Y3109957D01*
X-8121354Y6283699D02*
X-7549925Y6283699D01*
X-7835639Y6283699D02*
X-7835639Y7283699D01*
X-7740401Y7140842D01*
X-7645163Y7045604D01*
X-7549925Y6997985D01*
X-8978497Y6950366D02*
X-8978497Y6283699D01*
X-8549925Y6950366D02*
X-8549925Y6426556D01*
X-8597544Y6331318D01*
X-8692782Y6283699D01*
X-8835640Y6283699D01*
X-8930878Y6331318D01*
X-8978497Y6378937D01*
X2168827Y7904219D02*
X2740256Y7904219D01*
X2454542Y7904219D02*
X2454542Y8904219D01*
X2549780Y8761362D01*
X2645018Y8666124D01*
X2740256Y8618505D01*
X1740256Y7904219D02*
X1740256Y8904219D01*
X1645018Y8285171D02*
X1359303Y7904219D01*
X1359303Y8570886D02*
X1740256Y8189933D01*
X3409795Y6898901D02*
X3362176Y6946520D01*
X3266938Y6994139D01*
X3028842Y6994139D01*
X2933604Y6946520D01*
X2885985Y6898901D01*
X2838366Y6803663D01*
X2838366Y6708425D01*
X2885985Y6565568D01*
X3457414Y5994139D01*
X2838366Y5994139D01*
X2457414Y6898901D02*
X2409795Y6946520D01*
X2314557Y6994139D01*
X2076461Y6994139D01*
X1981223Y6946520D01*
X1933604Y6898901D01*
X1885985Y6803663D01*
X1885985Y6708425D01*
X1933604Y6565568D01*
X2505033Y5994139D01*
X1885985Y5994139D01*
X1266938Y6994139D02*
X1171699Y6994139D01*
X1076461Y6946520D01*
X1028842Y6898901D01*
X981223Y6803663D01*
X933604Y6613187D01*
X933604Y6375091D01*
X981223Y6184615D01*
X1028842Y6089377D01*
X1076461Y6041758D01*
X1171699Y5994139D01*
X1266938Y5994139D01*
X1362176Y6041758D01*
X1409795Y6089377D01*
X1457414Y6184615D01*
X1505033Y6375091D01*
X1505033Y6613187D01*
X1457414Y6803663D01*
X1409795Y6898901D01*
X1362176Y6946520D01*
X1266938Y6994139D01*
X2553886Y11663419D02*
X3125315Y11663419D01*
X2839601Y11663419D02*
X2839601Y12663419D01*
X2934839Y12520562D01*
X3030077Y12425324D01*
X3125315Y12377705D01*
X2077696Y11663419D02*
X1887220Y11663419D01*
X1791981Y11711038D01*
X1744362Y11758657D01*
X1649124Y11901514D01*
X1601505Y12091990D01*
X1601505Y12472943D01*
X1649124Y12568181D01*
X1696743Y12615800D01*
X1791981Y12663419D01*
X1982458Y12663419D01*
X2077696Y12615800D01*
X2125315Y12568181D01*
X2172934Y12472943D01*
X2172934Y12234848D01*
X2125315Y12139610D01*
X2077696Y12091990D01*
X1982458Y12044371D01*
X1791981Y12044371D01*
X1696743Y12091990D01*
X1649124Y12139610D01*
X1601505Y12234848D01*
X982458Y12663419D02*
X887219Y12663419D01*
X791981Y12615800D01*
X744362Y12568181D01*
X696743Y12472943D01*
X649124Y12282467D01*
X649124Y12044371D01*
X696743Y11853895D01*
X744362Y11758657D01*
X791981Y11711038D01*
X887219Y11663419D01*
X982458Y11663419D01*
X1077696Y11711038D01*
X1125315Y11758657D01*
X1172934Y11853895D01*
X1220553Y12044371D01*
X1220553Y12282467D01*
X1172934Y12472943D01*
X1125315Y12568181D01*
X1077696Y12615800D01*
X982458Y12663419D01*
X11812021Y4628425D02*
X11812021Y5104616D01*
X12288211Y5152235D01*
X12240592Y5104616D01*
X12192973Y5009378D01*
X12192973Y4771282D01*
X12240592Y4676044D01*
X12288211Y4628425D01*
X12383450Y4580806D01*
X12621545Y4580806D01*
X12716783Y4628425D01*
X12764402Y4676044D01*
X12812021Y4771282D01*
X12812021Y5009378D01*
X12764402Y5104616D01*
X12716783Y5152235D01*
X11812021Y3961759D02*
X11812021Y3866520D01*
X11859640Y3771282D01*
X11907259Y3723663D01*
X12002497Y3676044D01*
X12192973Y3628425D01*
X12431069Y3628425D01*
X12621545Y3676044D01*
X12716783Y3723663D01*
X12764402Y3771282D01*
X12812021Y3866520D01*
X12812021Y3961759D01*
X12764402Y4056997D01*
X12716783Y4104616D01*
X12621545Y4152235D01*
X12431069Y4199854D01*
X12192973Y4199854D01*
X12002497Y4152235D01*
X11907259Y4104616D01*
X11859640Y4056997D01*
X11812021Y3961759D01*
X11812021Y3009378D02*
X11812021Y2914139D01*
X11859640Y2818901D01*
X11907259Y2771282D01*
X12002497Y2723663D01*
X12192973Y2676044D01*
X12431069Y2676044D01*
X12621545Y2723663D01*
X12716783Y2771282D01*
X12764402Y2818901D01*
X12812021Y2914139D01*
X12812021Y3009378D01*
X12764402Y3104616D01*
X12716783Y3152235D01*
X12621545Y3199854D01*
X12431069Y3247473D01*
X12192973Y3247473D01*
X12002497Y3199854D01*
X11907259Y3152235D01*
X11859640Y3104616D01*
X11812021Y3009378D01*
X3287875Y14234421D02*
X3240256Y14282040D01*
X3145018Y14329659D01*
X2906922Y14329659D01*
X2811684Y14282040D01*
X2764065Y14234421D01*
X2716446Y14139183D01*
X2716446Y14043945D01*
X2764065Y13901088D01*
X3335494Y13329659D01*
X2716446Y13329659D01*
X2335494Y14234421D02*
X2287875Y14282040D01*
X2192637Y14329659D01*
X1954541Y14329659D01*
X1859303Y14282040D01*
X1811684Y14234421D01*
X1764065Y14139183D01*
X1764065Y14043945D01*
X1811684Y13901088D01*
X2383113Y13329659D01*
X1764065Y13329659D01*
X1145018Y14329659D02*
X1049779Y14329659D01*
X954541Y14282040D01*
X906922Y14234421D01*
X859303Y14139183D01*
X811684Y13948707D01*
X811684Y13710611D01*
X859303Y13520135D01*
X906922Y13424897D01*
X954541Y13377278D01*
X1049779Y13329659D01*
X1145018Y13329659D01*
X1240256Y13377278D01*
X1287875Y13424897D01*
X1335494Y13520135D01*
X1383113Y13710611D01*
X1383113Y13948707D01*
X1335494Y14139183D01*
X1287875Y14234421D01*
X1240256Y14282040D01*
X1145018Y14329659D01*
X4153778Y-3662941D02*
X4725207Y-3662941D01*
X4439493Y-3662941D02*
X4439493Y-2662941D01*
X4534731Y-2805798D01*
X4629969Y-2901036D01*
X4725207Y-2948655D01*
X3534731Y-2662941D02*
X3439492Y-2662941D01*
X3344254Y-2710560D01*
X3296635Y-2758179D01*
X3249016Y-2853417D01*
X3201397Y-3043893D01*
X3201397Y-3281989D01*
X3249016Y-3472465D01*
X3296635Y-3567703D01*
X3344254Y-3615322D01*
X3439492Y-3662941D01*
X3534731Y-3662941D01*
X3629969Y-3615322D01*
X3677588Y-3567703D01*
X3725207Y-3472465D01*
X3772826Y-3281989D01*
X3772826Y-3043893D01*
X3725207Y-2853417D01*
X3677588Y-2758179D01*
X3629969Y-2710560D01*
X3534731Y-2662941D01*
X2772826Y-3662941D02*
X2772826Y-2662941D01*
X2677588Y-3281989D02*
X2391873Y-3662941D01*
X2391873Y-2996274D02*
X2772826Y-3377227D01*
X-11217966Y9515312D02*
X-11283015Y9497882D01*
X-11371873Y9439213D01*
X-11490921Y9233016D01*
X-11497301Y9126728D01*
X-11479871Y9061679D01*
X-11421202Y8972821D01*
X-11338723Y8925202D01*
X-11191196Y8895013D01*
X-10410610Y9104170D01*
X-10720134Y8568059D01*
X-11694156Y8690526D02*
X-11759205Y8673096D01*
X-11848063Y8614427D01*
X-11967111Y8408230D01*
X-11973491Y8301942D01*
X-11956061Y8236893D01*
X-11897392Y8148035D01*
X-11814914Y8100416D01*
X-11667387Y8070227D01*
X-10886800Y8279384D01*
X-11196324Y7743273D01*
X-12371873Y7707163D02*
X-12419492Y7624683D01*
X-12425872Y7518395D01*
X-12408442Y7453346D01*
X-12349773Y7364488D01*
X-12208626Y7228011D01*
X-12002429Y7108963D01*
X-11813662Y7054964D01*
X-11707374Y7048584D01*
X-11642325Y7066014D01*
X-11553467Y7124683D01*
X-11505848Y7207163D01*
X-11499468Y7313451D01*
X-11516898Y7378499D01*
X-11575567Y7467358D01*
X-11716714Y7603835D01*
X-11922911Y7722883D01*
X-12111678Y7776882D01*
X-12217966Y7783261D01*
X-12283015Y7765832D01*
X-12371873Y7707163D01*
X-13574021Y-3676805D02*
X-13621640Y-3724424D01*
X-13669259Y-3819662D01*
X-13669259Y-4057758D01*
X-13621640Y-4152996D01*
X-13574021Y-4200615D01*
X-13478783Y-4248234D01*
X-13383545Y-4248234D01*
X-13240688Y-4200615D01*
X-12669259Y-3629186D01*
X-12669259Y-4248234D01*
X-13574021Y-4629186D02*
X-13621640Y-4676805D01*
X-13669259Y-4772043D01*
X-13669259Y-5010139D01*
X-13621640Y-5105377D01*
X-13574021Y-5152996D01*
X-13478783Y-5200615D01*
X-13383545Y-5200615D01*
X-13240688Y-5152996D01*
X-12669259Y-4581567D01*
X-12669259Y-5200615D01*
X-13669259Y-5819662D02*
X-13669259Y-5914901D01*
X-13621640Y-6010139D01*
X-13574021Y-6057758D01*
X-13478783Y-6105377D01*
X-13288307Y-6152996D01*
X-13050211Y-6152996D01*
X-12859735Y-6105377D01*
X-12764497Y-6057758D01*
X-12716878Y-6010139D01*
X-12669259Y-5914901D01*
X-12669259Y-5819662D01*
X-12716878Y-5724424D01*
X-12764497Y-5676805D01*
X-12859735Y-5629186D01*
X-13050211Y-5581567D01*
X-13288307Y-5581567D01*
X-13478783Y-5629186D01*
X-13574021Y-5676805D01*
X-13621640Y-5724424D01*
X-13669259Y-5819662D01*
X-5820565Y-7368279D02*
X-5868184Y-7320660D01*
X-5963422Y-7273041D01*
X-6201518Y-7273041D01*
X-6296756Y-7320660D01*
X-6344375Y-7368279D01*
X-6391994Y-7463517D01*
X-6391994Y-7558755D01*
X-6344375Y-7701612D01*
X-5772946Y-8273041D01*
X-6391994Y-8273041D01*
X-6772946Y-7368279D02*
X-6820565Y-7320660D01*
X-6915803Y-7273041D01*
X-7153899Y-7273041D01*
X-7249137Y-7320660D01*
X-7296756Y-7368279D01*
X-7344375Y-7463517D01*
X-7344375Y-7558755D01*
X-7296756Y-7701612D01*
X-6725327Y-8273041D01*
X-7344375Y-8273041D01*
X-7963422Y-7273041D02*
X-8058661Y-7273041D01*
X-8153899Y-7320660D01*
X-8201518Y-7368279D01*
X-8249137Y-7463517D01*
X-8296756Y-7653993D01*
X-8296756Y-7892089D01*
X-8249137Y-8082565D01*
X-8201518Y-8177803D01*
X-8153899Y-8225422D01*
X-8058661Y-8273041D01*
X-7963422Y-8273041D01*
X-7868184Y-8225422D01*
X-7820565Y-8177803D01*
X-7772946Y-8082565D01*
X-7725327Y-7892089D01*
X-7725327Y-7653993D01*
X-7772946Y-7463517D01*
X-7820565Y-7368279D01*
X-7868184Y-7320660D01*
X-7963422Y-7273041D01*
X-735485Y-18683979D02*
X-783104Y-18636360D01*
X-878342Y-18588741D01*
X-1116438Y-18588741D01*
X-1211676Y-18636360D01*
X-1259295Y-18683979D01*
X-1306914Y-18779217D01*
X-1306914Y-18874455D01*
X-1259295Y-19017312D01*
X-687866Y-19588741D01*
X-1306914Y-19588741D01*
X-1687866Y-18683979D02*
X-1735485Y-18636360D01*
X-1830723Y-18588741D01*
X-2068819Y-18588741D01*
X-2164057Y-18636360D01*
X-2211676Y-18683979D01*
X-2259295Y-18779217D01*
X-2259295Y-18874455D01*
X-2211676Y-19017312D01*
X-1640247Y-19588741D01*
X-2259295Y-19588741D01*
X-2878342Y-18588741D02*
X-2973581Y-18588741D01*
X-3068819Y-18636360D01*
X-3116438Y-18683979D01*
X-3164057Y-18779217D01*
X-3211676Y-18969693D01*
X-3211676Y-19207789D01*
X-3164057Y-19398265D01*
X-3116438Y-19493503D01*
X-3068819Y-19541122D01*
X-2973581Y-19588741D01*
X-2878342Y-19588741D01*
X-2783104Y-19541122D01*
X-2735485Y-19493503D01*
X-2687866Y-19398265D01*
X-2640247Y-19207789D01*
X-2640247Y-18969693D01*
X-2687866Y-18779217D01*
X-2735485Y-18683979D01*
X-2783104Y-18636360D01*
X-2878342Y-18588741D01*
X5296161Y402198D02*
X5296161Y973627D01*
X5296161Y687913D02*
X4296161Y687913D01*
X4439018Y783151D01*
X4534256Y878389D01*
X4581875Y973627D01*
X4296161Y-216849D02*
X4296161Y-312088D01*
X4343780Y-407326D01*
X4391399Y-454945D01*
X4486637Y-502564D01*
X4677113Y-550183D01*
X4915209Y-550183D01*
X5105685Y-502564D01*
X5200923Y-454945D01*
X5248542Y-407326D01*
X5296161Y-312088D01*
X5296161Y-216849D01*
X5248542Y-121611D01*
X5200923Y-73992D01*
X5105685Y-26373D01*
X4915209Y21246D01*
X4677113Y21246D01*
X4486637Y-26373D01*
X4391399Y-73992D01*
X4343780Y-121611D01*
X4296161Y-216849D01*
X5296161Y-978754D02*
X4296161Y-978754D01*
X4915209Y-1073992D02*
X5296161Y-1359707D01*
X4629494Y-1359707D02*
X5010447Y-978754D01*
X-5150242Y-9837681D02*
X-4578813Y-9837681D01*
X-4864527Y-9837681D02*
X-4864527Y-8837681D01*
X-4769289Y-8980538D01*
X-4674051Y-9075776D01*
X-4578813Y-9123395D01*
X-5769289Y-8837681D02*
X-5864528Y-8837681D01*
X-5959766Y-8885300D01*
X-6007385Y-8932919D01*
X-6055004Y-9028157D01*
X-6102623Y-9218633D01*
X-6102623Y-9456729D01*
X-6055004Y-9647205D01*
X-6007385Y-9742443D01*
X-5959766Y-9790062D01*
X-5864528Y-9837681D01*
X-5769289Y-9837681D01*
X-5674051Y-9790062D01*
X-5626432Y-9742443D01*
X-5578813Y-9647205D01*
X-5531194Y-9456729D01*
X-5531194Y-9218633D01*
X-5578813Y-9028157D01*
X-5626432Y-8932919D01*
X-5674051Y-8885300D01*
X-5769289Y-8837681D01*
X-6531194Y-9837681D02*
X-6531194Y-8837681D01*
X-6626432Y-9456729D02*
X-6912147Y-9837681D01*
X-6912147Y-9171014D02*
X-6531194Y-9551967D01*
X12508174Y-3857788D02*
X12443125Y-3875218D01*
X12354267Y-3933887D01*
X12235219Y-4140084D01*
X12228839Y-4246372D01*
X12246269Y-4311421D01*
X12304938Y-4400279D01*
X12387417Y-4447898D01*
X12534944Y-4478087D01*
X13315530Y-4268930D01*
X13006006Y-4805041D01*
X12031984Y-4682574D02*
X11966935Y-4700004D01*
X11878077Y-4758673D01*
X11759029Y-4964870D01*
X11752649Y-5071158D01*
X11770079Y-5136207D01*
X11828748Y-5225065D01*
X11911226Y-5272684D01*
X12058753Y-5302873D01*
X12839340Y-5093716D01*
X12529816Y-5629827D01*
X11354267Y-5665937D02*
X11306648Y-5748417D01*
X11300268Y-5854705D01*
X11317698Y-5919754D01*
X11376367Y-6008612D01*
X11517514Y-6145089D01*
X11723711Y-6264137D01*
X11912478Y-6318136D01*
X12018766Y-6324516D01*
X12083815Y-6307086D01*
X12172673Y-6248417D01*
X12220292Y-6165937D01*
X12226672Y-6059649D01*
X12209242Y-5994601D01*
X12150573Y-5905742D01*
X12009426Y-5769265D01*
X11803229Y-5650217D01*
X11614462Y-5596218D01*
X11508174Y-5589839D01*
X11443125Y-5607268D01*
X11354267Y-5665937D01*
X12491621Y7980469D02*
X12509051Y8045518D01*
X12502671Y8151806D01*
X12383623Y8358003D01*
X12294765Y8416672D01*
X12229716Y8434102D01*
X12123428Y8427722D01*
X12040949Y8380103D01*
X11941041Y8267435D01*
X11731884Y7486849D01*
X11422360Y8022960D01*
X12015430Y8805255D02*
X12032860Y8870304D01*
X12026480Y8976592D01*
X11907432Y9182789D01*
X11818574Y9241458D01*
X11753525Y9258888D01*
X11647237Y9252508D01*
X11564759Y9204889D01*
X11464851Y9092221D01*
X11255693Y8311635D01*
X10946169Y8847746D01*
X11502671Y9883856D02*
X11455051Y9966336D01*
X11366193Y10025005D01*
X11301144Y10042435D01*
X11194856Y10036055D01*
X11006090Y9982056D01*
X10799893Y9863008D01*
X10658745Y9726531D01*
X10600076Y9637673D01*
X10582646Y9572624D01*
X10589026Y9466336D01*
X10636646Y9383856D01*
X10725504Y9325187D01*
X10790553Y9307758D01*
X10896841Y9314137D01*
X11085607Y9368136D01*
X11291804Y9487184D01*
X11432952Y9623661D01*
X11491621Y9712520D01*
X11509051Y9777568D01*
X11502671Y9883856D01*
X7866119Y-13443105D02*
X7818500Y-13490724D01*
X7770881Y-13585962D01*
X7770881Y-13824058D01*
X7818500Y-13919296D01*
X7866119Y-13966915D01*
X7961357Y-14014534D01*
X8056595Y-14014534D01*
X8199452Y-13966915D01*
X8770881Y-13395486D01*
X8770881Y-14014534D01*
X7866119Y-14395486D02*
X7818500Y-14443105D01*
X7770881Y-14538343D01*
X7770881Y-14776439D01*
X7818500Y-14871677D01*
X7866119Y-14919296D01*
X7961357Y-14966915D01*
X8056595Y-14966915D01*
X8199452Y-14919296D01*
X8770881Y-14347867D01*
X8770881Y-14966915D01*
X7770881Y-15585962D02*
X7770881Y-15681201D01*
X7818500Y-15776439D01*
X7866119Y-15824058D01*
X7961357Y-15871677D01*
X8151833Y-15919296D01*
X8389929Y-15919296D01*
X8580405Y-15871677D01*
X8675643Y-15824058D01*
X8723262Y-15776439D01*
X8770881Y-15681201D01*
X8770881Y-15585962D01*
X8723262Y-15490724D01*
X8675643Y-15443105D01*
X8580405Y-15395486D01*
X8389929Y-15347867D01*
X8151833Y-15347867D01*
X7961357Y-15395486D01*
X7866119Y-15443105D01*
X7818500Y-15490724D01*
X7770881Y-15585962D01*
X-2483005Y8935981D02*
X-2530624Y8983600D01*
X-2625862Y9031219D01*
X-2863958Y9031219D01*
X-2959196Y8983600D01*
X-3006815Y8935981D01*
X-3054434Y8840743D01*
X-3054434Y8745505D01*
X-3006815Y8602648D01*
X-2435386Y8031219D01*
X-3054434Y8031219D01*
X-3435386Y8935981D02*
X-3483005Y8983600D01*
X-3578243Y9031219D01*
X-3816339Y9031219D01*
X-3911577Y8983600D01*
X-3959196Y8935981D01*
X-4006815Y8840743D01*
X-4006815Y8745505D01*
X-3959196Y8602648D01*
X-3387767Y8031219D01*
X-4006815Y8031219D01*
X-4625862Y9031219D02*
X-4721101Y9031219D01*
X-4816339Y8983600D01*
X-4863958Y8935981D01*
X-4911577Y8840743D01*
X-4959196Y8650267D01*
X-4959196Y8412171D01*
X-4911577Y8221695D01*
X-4863958Y8126457D01*
X-4816339Y8078838D01*
X-4721101Y8031219D01*
X-4625862Y8031219D01*
X-4530624Y8078838D01*
X-4483005Y8126457D01*
X-4435386Y8221695D01*
X-4387767Y8412171D01*
X-4387767Y8650267D01*
X-4435386Y8840743D01*
X-4483005Y8935981D01*
X-4530624Y8983600D01*
X-4625862Y9031219D01*
X1412501Y-501354D02*
X1412501Y70075D01*
X1412501Y-215639D02*
X412501Y-215639D01*
X555358Y-120401D01*
X650596Y-25163D01*
X698215Y70075D01*
X745834Y-1358497D02*
X1412501Y-1358497D01*
X745834Y-929925D02*
X1269644Y-929925D01*
X1364882Y-977544D01*
X1412501Y-1072782D01*
X1412501Y-1215640D01*
X1364882Y-1310878D01*
X1317263Y-1358497D01*
X2944405Y-5611762D02*
X2801548Y-5659381D01*
X2563452Y-5659381D01*
X2468214Y-5611762D01*
X2420595Y-5564143D01*
X2372976Y-5468905D01*
X2372976Y-5373667D01*
X2420595Y-5278429D01*
X2468214Y-5230810D01*
X2563452Y-5183190D01*
X2753929Y-5135571D01*
X2849167Y-5087952D01*
X2896786Y-5040333D01*
X2944405Y-4945095D01*
X2944405Y-4849857D01*
X2896786Y-4754619D01*
X2849167Y-4707000D01*
X2753929Y-4659381D01*
X2515833Y-4659381D01*
X2372976Y-4707000D01*
X2039643Y-4659381D02*
X1801548Y-5659381D01*
X1611071Y-4945095D01*
X1420595Y-5659381D01*
X1182500Y-4659381D01*
X1039643Y-5754619D02*
X277738Y-5754619D01*
X39643Y-5659381D02*
X39643Y-4659381D01*
X-341310Y-4659381D01*
X-436548Y-4707000D01*
X-484167Y-4754619D01*
X-531786Y-4849857D01*
X-531786Y-4992714D01*
X-484167Y-5087952D01*
X-436548Y-5135571D01*
X-341310Y-5183190D01*
X39643Y-5183190D01*
X-960357Y-4659381D02*
X-960357Y-5468905D01*
X-1007976Y-5564143D01*
X-1055595Y-5611762D01*
X-1150833Y-5659381D01*
X-1341310Y-5659381D01*
X-1436548Y-5611762D01*
X-1484167Y-5564143D01*
X-1531786Y-5468905D01*
X-1531786Y-4659381D01*
X-1960357Y-5611762D02*
X-2103214Y-5659381D01*
X-2341310Y-5659381D01*
X-2436548Y-5611762D01*
X-2484167Y-5564143D01*
X-2531786Y-5468905D01*
X-2531786Y-5373667D01*
X-2484167Y-5278429D01*
X-2436548Y-5230810D01*
X-2341310Y-5183190D01*
X-2150833Y-5135571D01*
X-2055595Y-5087952D01*
X-2007976Y-5040333D01*
X-1960357Y-4945095D01*
X-1960357Y-4849857D01*
X-2007976Y-4754619D01*
X-2055595Y-4707000D01*
X-2150833Y-4659381D01*
X-2388929Y-4659381D01*
X-2531786Y-4707000D01*
X-2960357Y-5659381D02*
X-2960357Y-4659381D01*
X-2960357Y-5135571D02*
X-3531786Y-5135571D01*
X-3531786Y-5659381D02*
X-3531786Y-4659381D01*
X6593056Y-15677141D02*
X6593056Y-14677141D01*
X6212103Y-14677141D01*
X6116865Y-14724760D01*
X6069246Y-14772379D01*
X6021627Y-14867617D01*
X6021627Y-15010474D01*
X6069246Y-15105712D01*
X6116865Y-15153331D01*
X6212103Y-15200950D01*
X6593056Y-15200950D01*
X5640675Y-15391427D02*
X5164484Y-15391427D01*
X5735913Y-15677141D02*
X5402580Y-14677141D01*
X5069246Y-15677141D01*
X4735913Y-15677141D02*
X4735913Y-14677141D01*
X4497818Y-14677141D01*
X4354960Y-14724760D01*
X4259722Y-14819998D01*
X4212103Y-14915236D01*
X4164484Y-15105712D01*
X4164484Y-15248570D01*
X4212103Y-15439046D01*
X4259722Y-15534284D01*
X4354960Y-15629522D01*
X4497818Y-15677141D01*
X4735913Y-15677141D01*
X5111357Y7871119D02*
X5587548Y7871119D01*
X5587548Y8871119D01*
X4778024Y8394929D02*
X4444690Y8394929D01*
X4301833Y7871119D02*
X4778024Y7871119D01*
X4778024Y8871119D01*
X4301833Y8871119D01*
X3873262Y7871119D02*
X3873262Y8871119D01*
X3635167Y8871119D01*
X3492309Y8823500D01*
X3397071Y8728262D01*
X3349452Y8633024D01*
X3301833Y8442548D01*
X3301833Y8299690D01*
X3349452Y8109214D01*
X3397071Y8013976D01*
X3492309Y7918738D01*
X3635167Y7871119D01*
X3873262Y7871119D01*
X3111357Y7775881D02*
X2349452Y7775881D01*
X2158976Y7918738D02*
X2016119Y7871119D01*
X1778023Y7871119D01*
X1682785Y7918738D01*
X1635166Y7966357D01*
X1587547Y8061595D01*
X1587547Y8156833D01*
X1635166Y8252071D01*
X1682785Y8299690D01*
X1778023Y8347310D01*
X1968500Y8394929D01*
X2063738Y8442548D01*
X2111357Y8490167D01*
X2158976Y8585405D01*
X2158976Y8680643D01*
X2111357Y8775881D01*
X2063738Y8823500D01*
X1968500Y8871119D01*
X1730404Y8871119D01*
X1587547Y8823500D01*
X1158976Y7871119D02*
X1158976Y8537786D01*
X1158976Y8442548D02*
X1111357Y8490167D01*
X1016119Y8537786D01*
X873261Y8537786D01*
X778023Y8490167D01*
X730404Y8394929D01*
X730404Y7871119D01*
X730404Y8394929D02*
X682785Y8490167D01*
X587547Y8537786D01*
X444690Y8537786D01*
X349452Y8490167D01*
X301833Y8394929D01*
X301833Y7871119D01*
X-602929Y7871119D02*
X-602929Y8394929D01*
X-555310Y8490167D01*
X-460072Y8537786D01*
X-269595Y8537786D01*
X-174357Y8490167D01*
X-602929Y7918738D02*
X-507691Y7871119D01*
X-269595Y7871119D01*
X-174357Y7918738D01*
X-126738Y8013976D01*
X-126738Y8109214D01*
X-174357Y8204452D01*
X-269595Y8252071D01*
X-507691Y8252071D01*
X-602929Y8299690D01*
X-1221976Y7871119D02*
X-1126738Y7918738D01*
X-1079119Y8013976D01*
X-1079119Y8871119D01*
X-1745786Y7871119D02*
X-1650548Y7918738D01*
X-1602929Y8013976D01*
X-1602929Y8871119D01*
M02*
