G04 #@! TF.FileFunction,Copper,L1,Top,Signal*
%FSLAX46Y46*%
G04 Gerber Fmt 4.6, Leading zero omitted, Abs format (unit mm)*
G04 Created by KiCad (PCBNEW 4.0.4+dfsg1-stable) date Fri Dec 23 11:26:22 2016*
%MOMM*%
%LPD*%
G01*
G04 APERTURE LIST*
%ADD10C,0.100000*%
%ADD11C,0.200000*%
%ADD12C,2.000000*%
%ADD13C,1.500000*%
%ADD14R,2.500000X2.500000*%
%ADD15C,2.500000*%
%ADD16C,1.100000*%
%ADD17C,0.300000*%
G04 APERTURE END LIST*
D10*
D11*
X-14903176Y-12501705D02*
X-14903176Y-13149324D01*
X-14865081Y-13225514D01*
X-14826985Y-13263610D01*
X-14750795Y-13301705D01*
X-14598414Y-13301705D01*
X-14522223Y-13263610D01*
X-14484128Y-13225514D01*
X-14446033Y-13149324D01*
X-14446033Y-12501705D01*
X-13607938Y-13301705D02*
X-13874605Y-12920752D01*
X-14065081Y-13301705D02*
X-14065081Y-12501705D01*
X-13760319Y-12501705D01*
X-13684128Y-12539800D01*
X-13646033Y-12577895D01*
X-13607938Y-12654086D01*
X-13607938Y-12768371D01*
X-13646033Y-12844562D01*
X-13684128Y-12882657D01*
X-13760319Y-12920752D01*
X-14065081Y-12920752D01*
X-12731747Y-12768371D02*
X-12541271Y-13301705D01*
X-12350795Y-12768371D01*
X-11626985Y-13301705D02*
X-12084128Y-13301705D01*
X-11855557Y-13301705D02*
X-11855557Y-12501705D01*
X-11931747Y-12615990D01*
X-12007938Y-12692181D01*
X-12084128Y-12730276D01*
X-11284128Y-13225514D02*
X-11246033Y-13263610D01*
X-11284128Y-13301705D01*
X-11322223Y-13263610D01*
X-11284128Y-13225514D01*
X-11284128Y-13301705D01*
X-10484128Y-13301705D02*
X-10941271Y-13301705D01*
X-10712700Y-13301705D02*
X-10712700Y-12501705D01*
X-10788890Y-12615990D01*
X-10865081Y-12692181D01*
X-10941271Y-12730276D01*
X-14084129Y-13977895D02*
X-14046034Y-13939800D01*
X-13969843Y-13901705D01*
X-13779367Y-13901705D01*
X-13703177Y-13939800D01*
X-13665081Y-13977895D01*
X-13626986Y-14054086D01*
X-13626986Y-14130276D01*
X-13665081Y-14244562D01*
X-14122224Y-14701705D01*
X-13626986Y-14701705D01*
X-13131748Y-13901705D02*
X-13055557Y-13901705D01*
X-12979367Y-13939800D01*
X-12941272Y-13977895D01*
X-12903176Y-14054086D01*
X-12865081Y-14206467D01*
X-12865081Y-14396943D01*
X-12903176Y-14549324D01*
X-12941272Y-14625514D01*
X-12979367Y-14663610D01*
X-13055557Y-14701705D01*
X-13131748Y-14701705D01*
X-13207938Y-14663610D01*
X-13246034Y-14625514D01*
X-13284129Y-14549324D01*
X-13322224Y-14396943D01*
X-13322224Y-14206467D01*
X-13284129Y-14054086D01*
X-13246034Y-13977895D01*
X-13207938Y-13939800D01*
X-13131748Y-13901705D01*
X-12103176Y-14701705D02*
X-12560319Y-14701705D01*
X-12331748Y-14701705D02*
X-12331748Y-13901705D01*
X-12407938Y-14015990D01*
X-12484129Y-14092181D01*
X-12560319Y-14130276D01*
X-11417462Y-13901705D02*
X-11569843Y-13901705D01*
X-11646033Y-13939800D01*
X-11684128Y-13977895D01*
X-11760319Y-14092181D01*
X-11798414Y-14244562D01*
X-11798414Y-14549324D01*
X-11760319Y-14625514D01*
X-11722224Y-14663610D01*
X-11646033Y-14701705D01*
X-11493652Y-14701705D01*
X-11417462Y-14663610D01*
X-11379366Y-14625514D01*
X-11341271Y-14549324D01*
X-11341271Y-14358848D01*
X-11379366Y-14282657D01*
X-11417462Y-14244562D01*
X-11493652Y-14206467D01*
X-11646033Y-14206467D01*
X-11722224Y-14244562D01*
X-11760319Y-14282657D01*
X-11798414Y-14358848D01*
D12*
X-12446000Y12827000D03*
X-14922500Y7155148D03*
X-13652500Y9354852D03*
D13*
X2857500Y1079500D03*
X2857500Y-1460500D03*
D14*
X-15875000Y2984500D03*
D15*
X-15875000Y-2095500D03*
D12*
X-1270000Y16446500D03*
X1270000Y16446500D03*
X-13652500Y-9354852D03*
X-14922500Y-7155148D03*
X1270000Y-16510000D03*
X-1270000Y-16510000D03*
X14922500Y-7155148D03*
X13652500Y-9354852D03*
X13652500Y9354852D03*
X14922500Y7155148D03*
X-7366000Y11874500D03*
X-4826000Y11874500D03*
X16637000Y-3873500D03*
X16637000Y-1333500D03*
X16637000Y1206500D03*
X8763000Y-9779000D03*
X6223000Y-9779000D03*
X4762500Y-16954500D03*
X-5524500Y-16065500D03*
X-8128000Y-13779500D03*
D16*
X-6286500Y-11747500D03*
X-8191500Y-5588000D03*
X6096000Y11747500D03*
X8572500Y5270500D03*
X10477500Y-4445000D03*
X3175000Y4508500D03*
X-9398000Y7874000D03*
D17*
X16637000Y-1333500D02*
X13589000Y-1333500D01*
X13589000Y-1333500D02*
X10477500Y-4445000D01*
X-9398000Y7874000D02*
X-9398000Y4381500D01*
X-9398000Y4381500D02*
X-15875000Y-2095500D01*
X-8191500Y-5588000D02*
X-8191500Y-9842500D01*
X-8191500Y-9842500D02*
X-6286500Y-11747500D01*
X-9398000Y7874000D02*
X-9398000Y-4381500D01*
X-9398000Y-4381500D02*
X-8191500Y-5588000D01*
X3175000Y4508500D02*
X-6032500Y4508500D01*
X-6032500Y4508500D02*
X-9398000Y7874000D01*
X6096000Y11747500D02*
X6096000Y7429500D01*
X6096000Y7429500D02*
X3175000Y4508500D01*
X8572500Y5270500D02*
X8572500Y9271000D01*
X8572500Y9271000D02*
X6096000Y11747500D01*
X10477500Y-4445000D02*
X11991340Y-4445000D01*
X11991340Y-4445000D02*
X8572500Y-1026160D01*
X8572500Y-1026160D02*
X8572500Y5270500D01*
X3111500Y4508500D02*
X3111500Y4445000D01*
X3175000Y4508500D02*
X3111500Y4508500D01*
X-9398000Y7874000D02*
X-9398000Y8001000D01*
M02*
