G04 #@! TF.FileFunction,Copper,L2,Bot,Signal*
%FSLAX46Y46*%
G04 Gerber Fmt 4.6, Leading zero omitted, Abs format (unit mm)*
G04 Created by KiCad (PCBNEW 4.0.4+dfsg1-stable) date Fri Dec 23 11:26:22 2016*
%MOMM*%
%LPD*%
G01*
G04 APERTURE LIST*
%ADD10C,0.100000*%
%ADD11C,2.000000*%
%ADD12R,0.900000X1.200000*%
%ADD13C,1.500000*%
%ADD14R,2.500000X2.500000*%
%ADD15C,2.500000*%
%ADD16R,0.550000X1.600000*%
%ADD17R,1.600000X0.550000*%
%ADD18R,1.800860X0.800100*%
%ADD19R,0.381000X1.040000*%
%ADD20R,0.750000X1.200000*%
%ADD21R,1.200000X0.750000*%
%ADD22R,1.200000X0.900000*%
%ADD23R,1.800000X1.300000*%
%ADD24C,1.100000*%
%ADD25C,0.300000*%
%ADD26C,0.250000*%
%ADD27C,0.200000*%
%ADD28C,0.254000*%
G04 APERTURE END LIST*
D10*
D11*
X-12446000Y12827000D03*
X-14922500Y7155148D03*
X-13652500Y9354852D03*
D12*
X-825500Y3576500D03*
X-825500Y1376500D03*
D13*
X2857500Y1079500D03*
X2857500Y-1460500D03*
D14*
X-15875000Y2984500D03*
D15*
X-15875000Y-2095500D03*
D11*
X-1270000Y16446500D03*
X1270000Y16446500D03*
X-13652500Y-9354852D03*
X-14922500Y-7155148D03*
X1270000Y-16510000D03*
X-1270000Y-16510000D03*
X14922500Y-7155148D03*
X13652500Y-9354852D03*
X13652500Y9354852D03*
X14922500Y7155148D03*
X-7366000Y11874500D03*
X-4826000Y11874500D03*
D16*
X-10420000Y4567500D03*
X-9620000Y4567500D03*
X-8820000Y4567500D03*
X-8020000Y4567500D03*
X-7220000Y4567500D03*
X-6420000Y4567500D03*
X-5620000Y4567500D03*
X-4820000Y4567500D03*
D17*
X-3370000Y3117500D03*
X-3370000Y2317500D03*
X-3370000Y1517500D03*
X-3370000Y717500D03*
X-3370000Y-82500D03*
X-3370000Y-882500D03*
X-3370000Y-1682500D03*
X-3370000Y-2482500D03*
D16*
X-4820000Y-3932500D03*
X-5620000Y-3932500D03*
X-6420000Y-3932500D03*
X-7220000Y-3932500D03*
X-8020000Y-3932500D03*
X-8820000Y-3932500D03*
X-9620000Y-3932500D03*
X-10420000Y-3932500D03*
D17*
X-11870000Y-2482500D03*
X-11870000Y-1682500D03*
X-11870000Y-882500D03*
X-11870000Y-82500D03*
X-11870000Y717500D03*
X-11870000Y1517500D03*
X-11870000Y2317500D03*
X-11870000Y3117500D03*
D18*
X5610860Y8321000D03*
X5610860Y10221000D03*
X8613140Y9271000D03*
D11*
X16637000Y-3873500D03*
X16637000Y-1333500D03*
X16637000Y1206500D03*
D19*
X8404500Y-2374000D03*
X7754500Y-2374000D03*
X7104500Y-2374000D03*
X6454500Y-2374000D03*
X6454500Y1866000D03*
X7104500Y1866000D03*
X7754500Y1866000D03*
X8404500Y1866000D03*
D11*
X8763000Y-9779000D03*
X6223000Y-9779000D03*
D20*
X14033500Y696000D03*
X14033500Y-1204000D03*
D21*
X3172500Y3048000D03*
X1272500Y3048000D03*
X6924000Y-4318000D03*
X8824000Y-4318000D03*
D22*
X6393000Y3492500D03*
X8593000Y3492500D03*
D21*
X-7495500Y6667500D03*
X-9395500Y6667500D03*
D22*
X3259000Y8191500D03*
X1059000Y8191500D03*
X1059000Y6540500D03*
X3259000Y6540500D03*
X3005000Y12065000D03*
X805000Y12065000D03*
D12*
X12192000Y4846500D03*
X12192000Y2646500D03*
D22*
X2941500Y13843000D03*
X741500Y13843000D03*
X2456000Y-3429000D03*
X4656000Y-3429000D03*
D10*
G36*
X-10969711Y9698243D02*
X-10190289Y9248243D01*
X-10790289Y8209013D01*
X-11569711Y8659013D01*
X-10969711Y9698243D01*
X-10969711Y9698243D01*
G37*
G36*
X-12069711Y7792987D02*
X-11290289Y7342987D01*
X-11890289Y6303757D01*
X-12669711Y6753757D01*
X-12069711Y7792987D01*
X-12069711Y7792987D01*
G37*
D12*
X-12954000Y-4170500D03*
X-12954000Y-6370500D03*
D22*
X-6012000Y-7556500D03*
X-8212000Y-7556500D03*
X-3132000Y-19177000D03*
X-932000Y-19177000D03*
D12*
X4762500Y-1227000D03*
X4762500Y973000D03*
D22*
X-6878500Y-9398000D03*
X-4678500Y-9398000D03*
D10*
G36*
X12537989Y-3306557D02*
X13317411Y-3756557D01*
X12717411Y-4795787D01*
X11937989Y-4345787D01*
X12537989Y-3306557D01*
X12537989Y-3306557D01*
G37*
G36*
X11437989Y-5211813D02*
X12217411Y-5661813D01*
X11617411Y-6701043D01*
X10837989Y-6251043D01*
X11437989Y-5211813D01*
X11437989Y-5211813D01*
G37*
G36*
X10253789Y9946743D02*
X11033211Y10396743D01*
X11633211Y9357513D01*
X10853789Y8907513D01*
X10253789Y9946743D01*
X10253789Y9946743D01*
G37*
G36*
X11353789Y8041487D02*
X12133211Y8491487D01*
X12733211Y7452257D01*
X11953789Y7002257D01*
X11353789Y8041487D01*
X11353789Y8041487D01*
G37*
D12*
X8445500Y-16022500D03*
X8445500Y-13822500D03*
D22*
X-4465500Y8445500D03*
X-2265500Y8445500D03*
D20*
X952500Y-1458000D03*
X952500Y442000D03*
D23*
X4290500Y-12029000D03*
X-3909500Y-12029000D03*
X4290500Y-7529000D03*
X-3909500Y-7529000D03*
D11*
X4762500Y-16954500D03*
X-5524500Y-16065500D03*
X-8128000Y-13779500D03*
D22*
X3068500Y10223500D03*
X868500Y10223500D03*
D24*
X-6286500Y-11747500D03*
X-8191500Y-5588000D03*
X6096000Y11747500D03*
X8572500Y5270500D03*
X10477500Y-4445000D03*
X3175000Y4508500D03*
X-9398000Y7874000D03*
D25*
X12192000Y2646500D02*
X13779500Y950000D01*
X13779500Y950000D02*
X14033500Y696000D01*
X16637000Y1206500D02*
X14544000Y1206500D01*
X14544000Y1206500D02*
X14033500Y696000D01*
X-6005000Y-12029000D02*
X-6286500Y-11747500D01*
X-6005000Y-12029000D02*
X-3909500Y-12029000D01*
X-8020000Y-5416500D02*
X-8191500Y-5588000D01*
X-8020000Y-5416500D02*
X-8020000Y-3932500D01*
X5610860Y11516360D02*
X5842000Y11747500D01*
X5842000Y11747500D02*
X6096000Y11747500D01*
X5610860Y11516360D02*
X5610860Y10221000D01*
D26*
X8593000Y5250000D02*
X8572500Y5270500D01*
X8593000Y3492500D02*
X8593000Y5250000D01*
X10350500Y-4318000D02*
X8824000Y-4318000D01*
X10350500Y-4318000D02*
X10477500Y-4445000D01*
X14163000Y-1333500D02*
X14033500Y-1204000D01*
X16637000Y-1333500D02*
X14163000Y-1333500D01*
D25*
X-7220000Y4567500D02*
X-7220000Y-1060500D01*
X-7220000Y-1060500D02*
X-8020000Y-1860500D01*
X-8020000Y-1860500D02*
X-8020000Y-3932500D01*
X-7220000Y4567500D02*
X-7220000Y3321000D01*
X-8820000Y3492500D02*
X-8820000Y5082000D01*
X-8509000Y3238500D02*
X-8820000Y3492500D01*
X-7302500Y3238500D02*
X-8509000Y3238500D01*
X-7220000Y3321000D02*
X-7302500Y3238500D01*
X3172500Y3048000D02*
X3172500Y4506000D01*
X3172500Y4506000D02*
X3175000Y4508500D01*
X-9395500Y6667500D02*
X-9395500Y7871500D01*
X-9395500Y7871500D02*
X-9398000Y7874000D01*
X-8820000Y5082000D02*
X-8820000Y6092000D01*
X-8820000Y6092000D02*
X-9395500Y6667500D01*
X8593000Y3492500D02*
X8445500Y3492500D01*
X8445500Y3492500D02*
X7754500Y2801500D01*
X7754500Y2801500D02*
X7754500Y1866000D01*
D26*
X109000Y442000D02*
X-825500Y1376500D01*
X952500Y442000D02*
X109000Y442000D01*
D25*
X952500Y442000D02*
X952500Y2728000D01*
X952500Y2728000D02*
X1272500Y3048000D01*
D26*
X952500Y2728000D02*
X1272500Y3048000D01*
D25*
X2456000Y-3429000D02*
X1905000Y-3429000D01*
X1905000Y-3429000D02*
X952500Y-2476500D01*
X952500Y-2476500D02*
X952500Y-1458000D01*
D26*
X7754500Y-2374000D02*
X7104500Y-2374000D01*
D25*
X7104500Y-2374000D02*
X7104500Y-4137500D01*
X7104500Y-4137500D02*
X6924000Y-4318000D01*
X2159000Y5715000D02*
X2159000Y9202420D01*
X4064000Y5524500D02*
X2349500Y5524500D01*
X2349500Y5524500D02*
X2159000Y5715000D01*
X3005000Y12065000D02*
X2095500Y11155500D01*
X4064000Y5524500D02*
X6096000Y3492500D01*
X2095500Y9265920D02*
X2095500Y11155500D01*
X2159000Y9202420D02*
X2095500Y9265920D01*
X10943500Y9652128D02*
X10943500Y10506800D01*
X5727700Y13792200D02*
X5727700Y13843000D01*
X7658100Y13792200D02*
X5727700Y13792200D01*
X10943500Y10506800D02*
X7658100Y13792200D01*
X12627700Y-4051172D02*
X12627700Y-3979000D01*
X12627700Y-3979000D02*
X11022700Y-2374000D01*
X11022700Y-2374000D02*
X9994000Y-2374000D01*
X3005000Y12065000D02*
X3005000Y13779500D01*
X3005000Y13779500D02*
X2941500Y13843000D01*
D27*
X3005000Y13779500D02*
X2941500Y13843000D01*
D25*
X12192000Y4846500D02*
X12192000Y5778500D01*
X10943500Y7027000D02*
X10943500Y9652128D01*
X12192000Y5778500D02*
X10943500Y7027000D01*
X8445500Y-16022500D02*
X8445500Y-16256000D01*
X8445500Y-16256000D02*
X4127500Y-20574000D01*
X4127500Y-20574000D02*
X-1735000Y-20574000D01*
X-1735000Y-20574000D02*
X-3132000Y-19177000D01*
X9994000Y-2374000D02*
X8404500Y-2374000D01*
X5727700Y13843000D02*
X2941500Y13843000D01*
X6393000Y3492500D02*
X6096000Y3492500D01*
X-4465500Y8445500D02*
X-5717500Y8445500D01*
X-5717500Y8445500D02*
X-7495500Y6667500D01*
X2941500Y13843000D02*
X2941500Y18458000D01*
X-9715500Y12954000D02*
X-10414000Y12954000D01*
X-4254500Y18415000D02*
X-9715500Y12954000D01*
X2898500Y18415000D02*
X-4254500Y18415000D01*
X2941500Y18458000D02*
X2898500Y18415000D01*
X-7495500Y6667500D02*
X-7495500Y7876500D01*
X-8572628Y8953628D02*
X-10880000Y8953628D01*
X-7495500Y7876500D02*
X-8572628Y8953628D01*
X-10880000Y8953628D02*
X-10880000Y9122500D01*
X-10880000Y9122500D02*
X-10414000Y9588500D01*
X-10414000Y9588500D02*
X-10414000Y12954000D01*
X-10414000Y12954000D02*
X-10414000Y14160500D01*
X-10414000Y14160500D02*
X-11493500Y15240000D01*
X-11493500Y15240000D02*
X-13779500Y15240000D01*
X-13779500Y15240000D02*
X-18986500Y10033000D01*
X-18986500Y10033000D02*
X-18986500Y6096000D01*
X-18986500Y6096000D02*
X-15875000Y2984500D01*
X-16573500Y3683000D02*
X-15875000Y2984500D01*
X-12954000Y-4170500D02*
X-12954000Y-3873500D01*
X-12954000Y-3873500D02*
X-13716000Y-3111500D01*
X-13716000Y-3111500D02*
X-13716000Y825500D01*
X-13716000Y825500D02*
X-15875000Y2984500D01*
X-3132000Y-19177000D02*
X-6794500Y-19177000D01*
X-18161000Y698500D02*
X-15875000Y2984500D01*
X-18161000Y-4254500D02*
X-18161000Y698500D01*
X-17018000Y-5397500D02*
X-18161000Y-4254500D01*
X-17018000Y-8953500D02*
X-17018000Y-5397500D01*
X-6794500Y-19177000D02*
X-17018000Y-8953500D01*
X-6420000Y4567500D02*
X-6420000Y-946000D01*
X-5620000Y-1746000D02*
X-5620000Y-3932500D01*
X-6420000Y-946000D02*
X-5620000Y-1746000D01*
X-7495500Y6667500D02*
X-7429500Y6667500D01*
X-7429500Y6667500D02*
X-6420000Y5658000D01*
X-6420000Y5658000D02*
X-6420000Y4567500D01*
X-15938500Y2794000D02*
X-15240000Y2794000D01*
X-8020000Y4567500D02*
X-8020000Y6143000D01*
X-8020000Y6143000D02*
X-7495500Y6667500D01*
X-5620000Y-3932500D02*
X-5620000Y-5810000D01*
X-5620000Y-5810000D02*
X-5080000Y-6350000D01*
X-4678500Y-9398000D02*
X-3175000Y-9398000D01*
X-7220000Y-5543500D02*
X-7220000Y-3932500D01*
X-6413500Y-6350000D02*
X-7220000Y-5543500D01*
X-2730500Y-6350000D02*
X-5080000Y-6350000D01*
X-5080000Y-6350000D02*
X-6413500Y-6350000D01*
X-2476500Y-6604000D02*
X-2730500Y-6350000D01*
X-2476500Y-8699500D02*
X-2476500Y-6604000D01*
X-3175000Y-9398000D02*
X-2476500Y-8699500D01*
D26*
X8404500Y-2374000D02*
X8404500Y-231500D01*
X6393000Y5059500D02*
X6393000Y3492500D01*
X7874000Y6540500D02*
X6393000Y5059500D01*
X9779000Y6540500D02*
X7874000Y6540500D01*
X9969500Y6350000D02*
X9779000Y6540500D01*
X9969500Y1333500D02*
X9969500Y6350000D01*
X8404500Y-231500D02*
X9969500Y1333500D01*
D25*
X6393000Y3492500D02*
X6540500Y3492500D01*
X6540500Y3492500D02*
X7104500Y2928500D01*
X7104500Y2928500D02*
X7104500Y1866000D01*
D26*
X5858500Y12763500D02*
X3318500Y10223500D01*
X6921500Y12763500D02*
X5858500Y12763500D01*
X8613140Y11071860D02*
X6921500Y12763500D01*
X8613140Y9271000D02*
X8613140Y11071860D01*
D25*
X618500Y10223500D02*
X618500Y11878500D01*
X618500Y11878500D02*
X805000Y12065000D01*
X741500Y13843000D02*
X741500Y15918000D01*
X741500Y15918000D02*
X1270000Y16446500D01*
X-11980000Y7048372D02*
X-11980000Y7682352D01*
X-11980000Y7682352D02*
X-13652500Y9354852D01*
X-12954000Y-6370500D02*
X-14137852Y-6370500D01*
X-14137852Y-6370500D02*
X-14922500Y-7155148D01*
X-1270000Y-16510000D02*
X-1270000Y-18839000D01*
X-1270000Y-18839000D02*
X-932000Y-19177000D01*
X11527700Y-5956428D02*
X13461872Y-5956428D01*
X15245048Y-9354852D02*
X13652500Y-9354852D01*
X16548100Y-8051800D02*
X15245048Y-9354852D01*
X16548100Y-6578600D02*
X16548100Y-8051800D01*
X15532100Y-5562600D02*
X16548100Y-6578600D01*
X13855700Y-5562600D02*
X15532100Y-5562600D01*
X13461872Y-5956428D02*
X13855700Y-5562600D01*
X14922500Y7155148D02*
X12635224Y7155148D01*
X12635224Y7155148D02*
X12043500Y7746872D01*
X-2265500Y8445500D02*
X-2265500Y9314000D01*
X-2265500Y9314000D02*
X-4826000Y11874500D01*
X-9620000Y-3932500D02*
X-9620000Y-6148500D01*
X-9620000Y-6148500D02*
X-8212000Y-7556500D01*
X-3306500Y3117500D02*
X-3306500Y3932500D01*
X-3306500Y3932500D02*
X698500Y8191500D01*
X698500Y8191500D02*
X1059000Y8191500D01*
X-3370000Y1517500D02*
X-2483000Y1517500D01*
X127000Y5354500D02*
X1059000Y6540500D01*
X127000Y2603500D02*
X127000Y5354500D01*
X-63500Y2413000D02*
X127000Y2603500D01*
X-1587500Y2413000D02*
X-63500Y2413000D01*
X-2483000Y1517500D02*
X-1587500Y2413000D01*
X-3370000Y2317500D02*
X-2572000Y2317500D01*
X-2572000Y2317500D02*
X-1313000Y3576500D01*
X-1313000Y3576500D02*
X-825500Y3576500D01*
X4762500Y-16954500D02*
X1905000Y-14859000D01*
X-2318000Y-1682500D02*
X-2095500Y-1905000D01*
X-2095500Y-1905000D02*
X-2095500Y-4127500D01*
X-2095500Y-4127500D02*
X-317500Y-5905500D01*
X-317500Y-5905500D02*
X-317500Y-12636500D01*
X-317500Y-12636500D02*
X0Y-12954000D01*
X-2318000Y-1682500D02*
X-3370000Y-1682500D01*
X1905000Y-14859000D02*
X0Y-12954000D01*
X-5524500Y-16065500D02*
X-4000500Y-16065500D01*
X-1079500Y-13144500D02*
X-1079500Y-12573000D01*
X-4000500Y-16065500D02*
X-1079500Y-13144500D01*
X-3370000Y-2482500D02*
X-3370000Y-3996000D01*
X-1079500Y-7747000D02*
X-1079500Y-12573000D01*
X-1079500Y-12573000D02*
X-1079500Y-13017500D01*
X-1079500Y-6286500D02*
X-1079500Y-7747000D01*
X-3370000Y-3996000D02*
X-1079500Y-6286500D01*
X-8128000Y-13779500D02*
X-2730500Y-13779500D01*
X-2730500Y-13779500D02*
X-1905000Y-12954000D01*
X-4820000Y-3932500D02*
X-4370180Y-3932500D01*
X-1905000Y-12954000D02*
X-1968500Y-13017500D01*
X-1905000Y-8001000D02*
X-1905000Y-12954000D01*
X-1926498Y-7979502D02*
X-1905000Y-8001000D01*
X-1926498Y-6376182D02*
X-1926498Y-7979502D01*
X-4370180Y-3932500D02*
X-1926498Y-6376182D01*
X-14033500Y11874500D02*
X-13398500Y11874500D01*
X-16891000Y5143500D02*
X-17907000Y6159500D01*
X-17907000Y6159500D02*
X-17907000Y8001000D01*
X-17907000Y8001000D02*
X-14033500Y11874500D01*
X-13716000Y3429000D02*
X-13716000Y4572000D01*
X-12719000Y717500D02*
X-13716000Y1714500D01*
X-13716000Y1714500D02*
X-13716000Y3429000D01*
X-11870000Y717500D02*
X-12719000Y717500D01*
X-14287500Y5143500D02*
X-15113000Y5143500D01*
X-13716000Y4572000D02*
X-14287500Y5143500D01*
X-15113000Y5143500D02*
X-16891000Y5143500D01*
X-13398500Y11874500D02*
X-12446000Y12827000D01*
X2857500Y1079500D02*
X4656000Y1079500D01*
X4656000Y1079500D02*
X4762500Y973000D01*
X6454500Y1866000D02*
X6454500Y1565000D01*
X6454500Y1565000D02*
X5862500Y973000D01*
X5862500Y973000D02*
X4762500Y973000D01*
X8404500Y1866000D02*
X8404500Y784500D01*
X4191000Y-127000D02*
X2857500Y-1460500D01*
X7493000Y-127000D02*
X4191000Y-127000D01*
X8404500Y784500D02*
X7493000Y-127000D01*
X5610860Y8321000D02*
X3388500Y8321000D01*
X3388500Y8321000D02*
X3259000Y8191500D01*
X3259000Y6540500D02*
X6350000Y6540500D01*
X14605000Y-3873500D02*
X16637000Y-3873500D01*
X10604500Y127000D02*
X14605000Y-3873500D01*
X10604500Y6540500D02*
X10604500Y127000D01*
X9652000Y7493000D02*
X10604500Y6540500D01*
X7302500Y7493000D02*
X9652000Y7493000D01*
X6350000Y6540500D02*
X7302500Y7493000D01*
X6454500Y-2374000D02*
X5711000Y-2374000D01*
X5711000Y-2374000D02*
X4656000Y-3429000D01*
X4762500Y-3322500D02*
X4656000Y-3429000D01*
X4762500Y-1227000D02*
X5307500Y-1227000D01*
X5307500Y-1227000D02*
X6454500Y-2374000D01*
X-6012000Y-7556500D02*
X-3937000Y-7556500D01*
X-3937000Y-7556500D02*
X-3909500Y-7529000D01*
X-6878500Y-9398000D02*
X-6878500Y-8423000D01*
X-6878500Y-8423000D02*
X-6012000Y-7556500D01*
X8445500Y-13822500D02*
X8445500Y-13271500D01*
X8445500Y-13271500D02*
X7218500Y-12044500D01*
X7218500Y-12255500D02*
X7218500Y-12044500D01*
X7218500Y-12044500D02*
X7218500Y-10774500D01*
X7218500Y-10774500D02*
X6223000Y-9779000D01*
X-1270000Y16446500D02*
X-1270000Y9525000D01*
X-4195500Y4567500D02*
X-4820000Y4567500D01*
X-825500Y7937500D02*
X-4195500Y4567500D01*
X-825500Y9080500D02*
X-825500Y7937500D01*
X-1270000Y9525000D02*
X-825500Y9080500D01*
X-10420000Y4567500D02*
X-12334852Y4567500D01*
X-12334852Y4567500D02*
X-14922500Y7155148D01*
X-11870000Y-2482500D02*
X-11870000Y-3306500D01*
X-11747500Y-7449852D02*
X-13652500Y-9354852D01*
X-11747500Y-3429000D02*
X-11747500Y-7449852D01*
X-11870000Y-3306500D02*
X-11747500Y-3429000D01*
X-10420000Y-3932500D02*
X-10420000Y-8947500D01*
X-9779000Y-9588500D02*
X-9779000Y-12065000D01*
X-10420000Y-8947500D02*
X-9779000Y-9588500D01*
X1270000Y-16510000D02*
X1270000Y-16319500D01*
X1270000Y-16319500D02*
X-190500Y-14859000D01*
X-190500Y-14859000D02*
X-1905000Y-14859000D01*
X-1905000Y-14859000D02*
X-4254500Y-17208500D01*
X-4254500Y-17208500D02*
X-4254500Y-17335500D01*
X-4254500Y-17335500D02*
X-4762500Y-17843500D01*
X-4762500Y-17843500D02*
X-6731000Y-17843500D01*
X-6731000Y-17843500D02*
X-9779000Y-14795500D01*
X-9779000Y-14795500D02*
X-9779000Y-12065000D01*
X-9779000Y-12065000D02*
X-9715500Y-12001500D01*
X14922500Y-7155148D02*
X10203148Y-7155148D01*
X-2305000Y717500D02*
X-3370000Y717500D01*
X-190500Y-1397000D02*
X-2305000Y717500D01*
X-190500Y-2857500D02*
X-190500Y-1397000D01*
X2497998Y-5545998D02*
X-190500Y-2857500D01*
X8593998Y-5545998D02*
X2497998Y-5545998D01*
X10203148Y-7155148D02*
X8593998Y-5545998D01*
X-3203500Y614500D02*
X-3306500Y717500D01*
D26*
X-3203500Y614500D02*
X-3306500Y717500D01*
D25*
X13652500Y9354852D02*
X16045148Y9354852D01*
X16637000Y8763000D02*
X16637000Y8826500D01*
X16045148Y9354852D02*
X16637000Y8763000D01*
X-3370000Y-882500D02*
X-2356000Y-882500D01*
X18986500Y6477000D02*
X16637000Y8826500D01*
X18986500Y-4953000D02*
X18986500Y6477000D01*
X17272000Y-6667500D02*
X18986500Y-4953000D01*
X17272000Y-10477500D02*
X17272000Y-6667500D01*
X12890500Y-14859000D02*
X17272000Y-10477500D01*
X3873500Y-14859000D02*
X12890500Y-14859000D01*
X1968500Y-12954000D02*
X3873500Y-14859000D01*
X1968500Y-6985000D02*
X1968500Y-12954000D01*
X-1397000Y-3619500D02*
X1968500Y-6985000D01*
X-1397000Y-1841500D02*
X-1397000Y-3619500D01*
X-2356000Y-882500D02*
X-1397000Y-1841500D01*
X8763000Y-9779000D02*
X8763000Y-8699500D01*
X4953000Y-6096000D02*
X6159500Y-6096000D01*
X-2330500Y-82500D02*
X-740502Y-1672498D01*
X-740502Y-1672498D02*
X-740502Y-3085318D01*
X-740502Y-3085318D02*
X2270180Y-6096000D01*
X2270180Y-6096000D02*
X4953000Y-6096000D01*
X-3370000Y-82500D02*
X-2330500Y-82500D01*
X6159500Y-6096000D02*
X8763000Y-8699500D01*
X-7366000Y11874500D02*
X-7239000Y11874500D01*
X-7239000Y11874500D02*
X-4826000Y9461500D01*
X-4953000Y6032500D02*
X-5620000Y6032500D01*
X-3302000Y7683500D02*
X-4953000Y6032500D01*
X-3302000Y8890000D02*
X-3302000Y7683500D01*
X-3873500Y9461500D02*
X-3302000Y8890000D01*
X-4826000Y9461500D02*
X-3873500Y9461500D01*
X-5620000Y4567500D02*
X-5620000Y6032500D01*
D28*
G36*
X-9450072Y-7428586D02*
X-9450072Y-8006500D01*
X-9442008Y-8107621D01*
X-9388894Y-8279134D01*
X-9290100Y-8429059D01*
X-9153450Y-8545525D01*
X-8989763Y-8619310D01*
X-8812000Y-8644572D01*
X-8034664Y-8644572D01*
X-8091310Y-8770237D01*
X-8116572Y-8948000D01*
X-8116572Y-9848000D01*
X-8108508Y-9949121D01*
X-8055394Y-10120634D01*
X-7956600Y-10270559D01*
X-7819950Y-10387025D01*
X-7656263Y-10460810D01*
X-7478500Y-10486072D01*
X-6278500Y-10486072D01*
X-6177379Y-10478008D01*
X-6005866Y-10424894D01*
X-5855941Y-10326100D01*
X-5779275Y-10236148D01*
X-5756600Y-10270559D01*
X-5619950Y-10387025D01*
X-5456263Y-10460810D01*
X-5278500Y-10486072D01*
X-4078500Y-10486072D01*
X-3977379Y-10478008D01*
X-3805866Y-10424894D01*
X-3655941Y-10326100D01*
X-3539475Y-10189450D01*
X-3536568Y-10183000D01*
X-3175000Y-10183000D01*
X-3102817Y-10175922D01*
X-3030598Y-10169604D01*
X-3026636Y-10168453D01*
X-3022526Y-10168050D01*
X-2953065Y-10147079D01*
X-2883476Y-10126861D01*
X-2879814Y-10124963D01*
X-2875860Y-10123769D01*
X-2811862Y-10089740D01*
X-2747458Y-10056357D01*
X-2744228Y-10053778D01*
X-2740588Y-10051843D01*
X-2690000Y-10010585D01*
X-2690000Y-10828775D01*
X-2708715Y-10816270D01*
X-2824277Y-10768403D01*
X-2946958Y-10744000D01*
X-3623750Y-10744000D01*
X-3782500Y-10902750D01*
X-3782500Y-11902000D01*
X-3762500Y-11902000D01*
X-3762500Y-12156000D01*
X-3782500Y-12156000D01*
X-3782500Y-12176000D01*
X-4036500Y-12176000D01*
X-4036500Y-12156000D01*
X-5285750Y-12156000D01*
X-5444500Y-12314750D01*
X-5444500Y-12741542D01*
X-5420097Y-12864223D01*
X-5372230Y-12979785D01*
X-5362398Y-12994500D01*
X-6686498Y-12994500D01*
X-6854835Y-12741132D01*
X-7080769Y-12513615D01*
X-7346592Y-12334316D01*
X-7642178Y-12210063D01*
X-7956269Y-12145589D01*
X-8276901Y-12143351D01*
X-8591862Y-12203433D01*
X-8889154Y-12323546D01*
X-8994000Y-12392155D01*
X-8994000Y-12309177D01*
X-8990780Y-12303172D01*
X-8945987Y-12156661D01*
X-8930504Y-12004240D01*
X-8944923Y-11851715D01*
X-8988691Y-11704895D01*
X-8994000Y-11694826D01*
X-8994000Y-11316458D01*
X-5444500Y-11316458D01*
X-5444500Y-11743250D01*
X-5285750Y-11902000D01*
X-4036500Y-11902000D01*
X-4036500Y-10902750D01*
X-4195250Y-10744000D01*
X-4872042Y-10744000D01*
X-4994723Y-10768403D01*
X-5110285Y-10816270D01*
X-5214289Y-10885763D01*
X-5302737Y-10974211D01*
X-5372230Y-11078215D01*
X-5420097Y-11193777D01*
X-5444500Y-11316458D01*
X-8994000Y-11316458D01*
X-8994000Y-9588500D01*
X-9001078Y-9516317D01*
X-9007396Y-9444098D01*
X-9008547Y-9440136D01*
X-9008950Y-9436026D01*
X-9029921Y-9366565D01*
X-9050139Y-9296976D01*
X-9052037Y-9293314D01*
X-9053231Y-9289360D01*
X-9087271Y-9225341D01*
X-9120643Y-9160959D01*
X-9123220Y-9157731D01*
X-9125157Y-9154088D01*
X-9171007Y-9097869D01*
X-9216226Y-9041226D01*
X-9221890Y-9035482D01*
X-9221987Y-9035362D01*
X-9222097Y-9035271D01*
X-9223921Y-9033421D01*
X-9635000Y-8622342D01*
X-9635000Y-7243658D01*
X-9450072Y-7428586D01*
X-9450072Y-7428586D01*
G37*
X-9450072Y-7428586D02*
X-9450072Y-8006500D01*
X-9442008Y-8107621D01*
X-9388894Y-8279134D01*
X-9290100Y-8429059D01*
X-9153450Y-8545525D01*
X-8989763Y-8619310D01*
X-8812000Y-8644572D01*
X-8034664Y-8644572D01*
X-8091310Y-8770237D01*
X-8116572Y-8948000D01*
X-8116572Y-9848000D01*
X-8108508Y-9949121D01*
X-8055394Y-10120634D01*
X-7956600Y-10270559D01*
X-7819950Y-10387025D01*
X-7656263Y-10460810D01*
X-7478500Y-10486072D01*
X-6278500Y-10486072D01*
X-6177379Y-10478008D01*
X-6005866Y-10424894D01*
X-5855941Y-10326100D01*
X-5779275Y-10236148D01*
X-5756600Y-10270559D01*
X-5619950Y-10387025D01*
X-5456263Y-10460810D01*
X-5278500Y-10486072D01*
X-4078500Y-10486072D01*
X-3977379Y-10478008D01*
X-3805866Y-10424894D01*
X-3655941Y-10326100D01*
X-3539475Y-10189450D01*
X-3536568Y-10183000D01*
X-3175000Y-10183000D01*
X-3102817Y-10175922D01*
X-3030598Y-10169604D01*
X-3026636Y-10168453D01*
X-3022526Y-10168050D01*
X-2953065Y-10147079D01*
X-2883476Y-10126861D01*
X-2879814Y-10124963D01*
X-2875860Y-10123769D01*
X-2811862Y-10089740D01*
X-2747458Y-10056357D01*
X-2744228Y-10053778D01*
X-2740588Y-10051843D01*
X-2690000Y-10010585D01*
X-2690000Y-10828775D01*
X-2708715Y-10816270D01*
X-2824277Y-10768403D01*
X-2946958Y-10744000D01*
X-3623750Y-10744000D01*
X-3782500Y-10902750D01*
X-3782500Y-11902000D01*
X-3762500Y-11902000D01*
X-3762500Y-12156000D01*
X-3782500Y-12156000D01*
X-3782500Y-12176000D01*
X-4036500Y-12176000D01*
X-4036500Y-12156000D01*
X-5285750Y-12156000D01*
X-5444500Y-12314750D01*
X-5444500Y-12741542D01*
X-5420097Y-12864223D01*
X-5372230Y-12979785D01*
X-5362398Y-12994500D01*
X-6686498Y-12994500D01*
X-6854835Y-12741132D01*
X-7080769Y-12513615D01*
X-7346592Y-12334316D01*
X-7642178Y-12210063D01*
X-7956269Y-12145589D01*
X-8276901Y-12143351D01*
X-8591862Y-12203433D01*
X-8889154Y-12323546D01*
X-8994000Y-12392155D01*
X-8994000Y-12309177D01*
X-8990780Y-12303172D01*
X-8945987Y-12156661D01*
X-8930504Y-12004240D01*
X-8944923Y-11851715D01*
X-8988691Y-11704895D01*
X-8994000Y-11694826D01*
X-8994000Y-11316458D01*
X-5444500Y-11316458D01*
X-5444500Y-11743250D01*
X-5285750Y-11902000D01*
X-4036500Y-11902000D01*
X-4036500Y-10902750D01*
X-4195250Y-10744000D01*
X-4872042Y-10744000D01*
X-4994723Y-10768403D01*
X-5110285Y-10816270D01*
X-5214289Y-10885763D01*
X-5302737Y-10974211D01*
X-5372230Y-11078215D01*
X-5420097Y-11193777D01*
X-5444500Y-11316458D01*
X-8994000Y-11316458D01*
X-8994000Y-9588500D01*
X-9001078Y-9516317D01*
X-9007396Y-9444098D01*
X-9008547Y-9440136D01*
X-9008950Y-9436026D01*
X-9029921Y-9366565D01*
X-9050139Y-9296976D01*
X-9052037Y-9293314D01*
X-9053231Y-9289360D01*
X-9087271Y-9225341D01*
X-9120643Y-9160959D01*
X-9123220Y-9157731D01*
X-9125157Y-9154088D01*
X-9171007Y-9097869D01*
X-9216226Y-9041226D01*
X-9221890Y-9035482D01*
X-9221987Y-9035362D01*
X-9222097Y-9035271D01*
X-9223921Y-9033421D01*
X-9635000Y-8622342D01*
X-9635000Y-7243658D01*
X-9450072Y-7428586D01*
G36*
X-8005000Y-5106649D02*
X-8005000Y-5543500D01*
X-7997922Y-5615683D01*
X-7991604Y-5687902D01*
X-7990453Y-5691864D01*
X-7990050Y-5695974D01*
X-7969079Y-5765435D01*
X-7948861Y-5835024D01*
X-7946963Y-5838686D01*
X-7945769Y-5842640D01*
X-7911740Y-5906638D01*
X-7878357Y-5971042D01*
X-7875778Y-5974272D01*
X-7873843Y-5977912D01*
X-7828010Y-6034109D01*
X-7782774Y-6090774D01*
X-7777110Y-6096518D01*
X-7777013Y-6096638D01*
X-7776903Y-6096729D01*
X-7775079Y-6098579D01*
X-7335428Y-6538230D01*
X-7434237Y-6493690D01*
X-7612000Y-6468428D01*
X-8189914Y-6468428D01*
X-8835000Y-5823342D01*
X-8835000Y-5370572D01*
X-8545000Y-5370572D01*
X-8443879Y-5362508D01*
X-8419927Y-5355091D01*
X-8357542Y-5367500D01*
X-8305750Y-5367500D01*
X-8199877Y-5261627D01*
X-8122441Y-5210600D01*
X-8017577Y-5087563D01*
X-8005000Y-5106649D01*
X-8005000Y-5106649D01*
G37*
X-8005000Y-5106649D02*
X-8005000Y-5543500D01*
X-7997922Y-5615683D01*
X-7991604Y-5687902D01*
X-7990453Y-5691864D01*
X-7990050Y-5695974D01*
X-7969079Y-5765435D01*
X-7948861Y-5835024D01*
X-7946963Y-5838686D01*
X-7945769Y-5842640D01*
X-7911740Y-5906638D01*
X-7878357Y-5971042D01*
X-7875778Y-5974272D01*
X-7873843Y-5977912D01*
X-7828010Y-6034109D01*
X-7782774Y-6090774D01*
X-7777110Y-6096518D01*
X-7777013Y-6096638D01*
X-7776903Y-6096729D01*
X-7775079Y-6098579D01*
X-7335428Y-6538230D01*
X-7434237Y-6493690D01*
X-7612000Y-6468428D01*
X-8189914Y-6468428D01*
X-8835000Y-5823342D01*
X-8835000Y-5370572D01*
X-8545000Y-5370572D01*
X-8443879Y-5362508D01*
X-8419927Y-5355091D01*
X-8357542Y-5367500D01*
X-8305750Y-5367500D01*
X-8199877Y-5261627D01*
X-8122441Y-5210600D01*
X-8017577Y-5087563D01*
X-8005000Y-5106649D01*
G36*
X-14501000Y500342D02*
X-14501000Y-987725D01*
X-14561395Y-961500D01*
X-15695395Y-2095500D01*
X-14561395Y-3229500D01*
X-14492530Y-3199597D01*
X-14487604Y-3255902D01*
X-14486453Y-3259864D01*
X-14486050Y-3263974D01*
X-14465079Y-3333435D01*
X-14444861Y-3403024D01*
X-14442963Y-3406686D01*
X-14441769Y-3410640D01*
X-14407740Y-3474638D01*
X-14374357Y-3539042D01*
X-14371778Y-3542272D01*
X-14369843Y-3545912D01*
X-14324010Y-3602109D01*
X-14278774Y-3658774D01*
X-14273110Y-3664518D01*
X-14273013Y-3664638D01*
X-14272903Y-3664729D01*
X-14271079Y-3666579D01*
X-14042072Y-3895586D01*
X-14042072Y-4770500D01*
X-14034008Y-4871621D01*
X-13980894Y-5043134D01*
X-13882100Y-5193059D01*
X-13792148Y-5269725D01*
X-13826559Y-5292400D01*
X-13943025Y-5429050D01*
X-14013548Y-5585500D01*
X-14137852Y-5585500D01*
X-14210035Y-5592578D01*
X-14282254Y-5598896D01*
X-14286216Y-5600047D01*
X-14290326Y-5600450D01*
X-14355096Y-5620005D01*
X-14436678Y-5585711D01*
X-14750769Y-5521237D01*
X-15071401Y-5518999D01*
X-15386362Y-5579081D01*
X-15683654Y-5699194D01*
X-15951954Y-5874765D01*
X-16181043Y-6099105D01*
X-16233000Y-6174986D01*
X-16233000Y-5397500D01*
X-16240078Y-5325317D01*
X-16246396Y-5253098D01*
X-16247547Y-5249136D01*
X-16247950Y-5245026D01*
X-16268921Y-5175565D01*
X-16289139Y-5105976D01*
X-16291037Y-5102314D01*
X-16292231Y-5098360D01*
X-16326260Y-5034362D01*
X-16359643Y-4969958D01*
X-16362222Y-4966728D01*
X-16364157Y-4963088D01*
X-16409970Y-4906916D01*
X-16455226Y-4850225D01*
X-16460891Y-4844480D01*
X-16460987Y-4844362D01*
X-16461096Y-4844272D01*
X-16462921Y-4842421D01*
X-17376000Y-3929342D01*
X-17376000Y-3409105D01*
X-17009000Y-3409105D01*
X-16883086Y-3699077D01*
X-16550874Y-3864933D01*
X-16192688Y-3962790D01*
X-15822294Y-3988889D01*
X-15453925Y-3942225D01*
X-15101738Y-3824594D01*
X-14866914Y-3699077D01*
X-14741000Y-3409105D01*
X-15875000Y-2275105D01*
X-17009000Y-3409105D01*
X-17376000Y-3409105D01*
X-17376000Y-3148128D01*
X-17188605Y-3229500D01*
X-16054605Y-2095500D01*
X-17188605Y-961500D01*
X-17376000Y-1042872D01*
X-17376000Y-781895D01*
X-17009000Y-781895D01*
X-15875000Y-1915895D01*
X-14741000Y-781895D01*
X-14866914Y-491923D01*
X-15199126Y-326067D01*
X-15557312Y-228210D01*
X-15927706Y-202111D01*
X-16296075Y-248775D01*
X-16648262Y-366406D01*
X-16883086Y-491923D01*
X-17009000Y-781895D01*
X-17376000Y-781895D01*
X-17376000Y373342D01*
X-16652914Y1096428D01*
X-15097086Y1096428D01*
X-14501000Y500342D01*
X-14501000Y500342D01*
G37*
X-14501000Y500342D02*
X-14501000Y-987725D01*
X-14561395Y-961500D01*
X-15695395Y-2095500D01*
X-14561395Y-3229500D01*
X-14492530Y-3199597D01*
X-14487604Y-3255902D01*
X-14486453Y-3259864D01*
X-14486050Y-3263974D01*
X-14465079Y-3333435D01*
X-14444861Y-3403024D01*
X-14442963Y-3406686D01*
X-14441769Y-3410640D01*
X-14407740Y-3474638D01*
X-14374357Y-3539042D01*
X-14371778Y-3542272D01*
X-14369843Y-3545912D01*
X-14324010Y-3602109D01*
X-14278774Y-3658774D01*
X-14273110Y-3664518D01*
X-14273013Y-3664638D01*
X-14272903Y-3664729D01*
X-14271079Y-3666579D01*
X-14042072Y-3895586D01*
X-14042072Y-4770500D01*
X-14034008Y-4871621D01*
X-13980894Y-5043134D01*
X-13882100Y-5193059D01*
X-13792148Y-5269725D01*
X-13826559Y-5292400D01*
X-13943025Y-5429050D01*
X-14013548Y-5585500D01*
X-14137852Y-5585500D01*
X-14210035Y-5592578D01*
X-14282254Y-5598896D01*
X-14286216Y-5600047D01*
X-14290326Y-5600450D01*
X-14355096Y-5620005D01*
X-14436678Y-5585711D01*
X-14750769Y-5521237D01*
X-15071401Y-5518999D01*
X-15386362Y-5579081D01*
X-15683654Y-5699194D01*
X-15951954Y-5874765D01*
X-16181043Y-6099105D01*
X-16233000Y-6174986D01*
X-16233000Y-5397500D01*
X-16240078Y-5325317D01*
X-16246396Y-5253098D01*
X-16247547Y-5249136D01*
X-16247950Y-5245026D01*
X-16268921Y-5175565D01*
X-16289139Y-5105976D01*
X-16291037Y-5102314D01*
X-16292231Y-5098360D01*
X-16326260Y-5034362D01*
X-16359643Y-4969958D01*
X-16362222Y-4966728D01*
X-16364157Y-4963088D01*
X-16409970Y-4906916D01*
X-16455226Y-4850225D01*
X-16460891Y-4844480D01*
X-16460987Y-4844362D01*
X-16461096Y-4844272D01*
X-16462921Y-4842421D01*
X-17376000Y-3929342D01*
X-17376000Y-3409105D01*
X-17009000Y-3409105D01*
X-16883086Y-3699077D01*
X-16550874Y-3864933D01*
X-16192688Y-3962790D01*
X-15822294Y-3988889D01*
X-15453925Y-3942225D01*
X-15101738Y-3824594D01*
X-14866914Y-3699077D01*
X-14741000Y-3409105D01*
X-15875000Y-2275105D01*
X-17009000Y-3409105D01*
X-17376000Y-3409105D01*
X-17376000Y-3148128D01*
X-17188605Y-3229500D01*
X-16054605Y-2095500D01*
X-17188605Y-961500D01*
X-17376000Y-1042872D01*
X-17376000Y-781895D01*
X-17009000Y-781895D01*
X-15875000Y-1915895D01*
X-14741000Y-781895D01*
X-14866914Y-491923D01*
X-15199126Y-326067D01*
X-15557312Y-228210D01*
X-15927706Y-202111D01*
X-16296075Y-248775D01*
X-16648262Y-366406D01*
X-16883086Y-491923D01*
X-17009000Y-781895D01*
X-17376000Y-781895D01*
X-17376000Y373342D01*
X-16652914Y1096428D01*
X-15097086Y1096428D01*
X-14501000Y500342D01*
G36*
X11451247Y-3912705D02*
X11385403Y-4026751D01*
X11341825Y-4118356D01*
X11302067Y-4293448D01*
X11312663Y-4472683D01*
X11352231Y-4584055D01*
X11311092Y-4586487D01*
X11141905Y-4646596D01*
X10996161Y-4751461D01*
X10885403Y-4892777D01*
X10285403Y-5932007D01*
X10241825Y-6023612D01*
X10230712Y-6072554D01*
X9486158Y-5328000D01*
X9486542Y-5328000D01*
X9609223Y-5303597D01*
X9724785Y-5255730D01*
X9828789Y-5186237D01*
X9917237Y-5097789D01*
X9986730Y-4993785D01*
X10034597Y-4878223D01*
X10059000Y-4755542D01*
X10059000Y-4603750D01*
X9900250Y-4445000D01*
X8951000Y-4445000D01*
X8951000Y-4465000D01*
X8697000Y-4465000D01*
X8697000Y-4445000D01*
X8677000Y-4445000D01*
X8677000Y-4191000D01*
X8697000Y-4191000D01*
X8697000Y-4171000D01*
X8951000Y-4171000D01*
X8951000Y-4191000D01*
X9900250Y-4191000D01*
X10059000Y-4032250D01*
X10059000Y-3880458D01*
X10034597Y-3757777D01*
X9986730Y-3642215D01*
X9917237Y-3538211D01*
X9828789Y-3449763D01*
X9724785Y-3380270D01*
X9609223Y-3332403D01*
X9486542Y-3308000D01*
X9109750Y-3308000D01*
X8951002Y-3466748D01*
X8951002Y-3415958D01*
X9017559Y-3372100D01*
X9134025Y-3235450D01*
X9168486Y-3159000D01*
X10697542Y-3159000D01*
X11451247Y-3912705D01*
X11451247Y-3912705D01*
G37*
X11451247Y-3912705D02*
X11385403Y-4026751D01*
X11341825Y-4118356D01*
X11302067Y-4293448D01*
X11312663Y-4472683D01*
X11352231Y-4584055D01*
X11311092Y-4586487D01*
X11141905Y-4646596D01*
X10996161Y-4751461D01*
X10885403Y-4892777D01*
X10285403Y-5932007D01*
X10241825Y-6023612D01*
X10230712Y-6072554D01*
X9486158Y-5328000D01*
X9486542Y-5328000D01*
X9609223Y-5303597D01*
X9724785Y-5255730D01*
X9828789Y-5186237D01*
X9917237Y-5097789D01*
X9986730Y-4993785D01*
X10034597Y-4878223D01*
X10059000Y-4755542D01*
X10059000Y-4603750D01*
X9900250Y-4445000D01*
X8951000Y-4445000D01*
X8951000Y-4465000D01*
X8697000Y-4465000D01*
X8697000Y-4445000D01*
X8677000Y-4445000D01*
X8677000Y-4191000D01*
X8697000Y-4191000D01*
X8697000Y-4171000D01*
X8951000Y-4171000D01*
X8951000Y-4191000D01*
X9900250Y-4191000D01*
X10059000Y-4032250D01*
X10059000Y-3880458D01*
X10034597Y-3757777D01*
X9986730Y-3642215D01*
X9917237Y-3538211D01*
X9828789Y-3449763D01*
X9724785Y-3380270D01*
X9609223Y-3332403D01*
X9486542Y-3308000D01*
X9109750Y-3308000D01*
X8951002Y-3466748D01*
X8951002Y-3415958D01*
X9017559Y-3372100D01*
X9134025Y-3235450D01*
X9168486Y-3159000D01*
X10697542Y-3159000D01*
X11451247Y-3912705D01*
G36*
X18201500Y-854969D02*
X18129795Y-647412D01*
X18036814Y-473456D01*
X17772413Y-377692D01*
X16816605Y-1333500D01*
X17772413Y-2289308D01*
X18036814Y-2193544D01*
X18177704Y-1903929D01*
X18201500Y-1813168D01*
X18201500Y-3378531D01*
X18087604Y-3102200D01*
X17910165Y-2835132D01*
X17684231Y-2607615D01*
X17570384Y-2530825D01*
X17592808Y-2468913D01*
X16637000Y-1513105D01*
X15681192Y-2468913D01*
X15703448Y-2530360D01*
X15607546Y-2593117D01*
X15378457Y-2817457D01*
X15197306Y-3082022D01*
X15194530Y-3088500D01*
X14930158Y-3088500D01*
X14160502Y-2318844D01*
X14160502Y-2280252D01*
X14319250Y-2439000D01*
X14471042Y-2439000D01*
X14593723Y-2414597D01*
X14709285Y-2366730D01*
X14813289Y-2297237D01*
X14901737Y-2208789D01*
X14971230Y-2104785D01*
X15019097Y-1989223D01*
X15043500Y-1866542D01*
X15043500Y-1728088D01*
X15144205Y-2019588D01*
X15237186Y-2193544D01*
X15501587Y-2289308D01*
X16457395Y-1333500D01*
X15501587Y-377692D01*
X15237186Y-473456D01*
X15096296Y-763071D01*
X15014616Y-1074608D01*
X15014472Y-1076998D01*
X14884752Y-1076998D01*
X15043500Y-918250D01*
X15043500Y-541458D01*
X15019097Y-418777D01*
X14971230Y-303215D01*
X14939177Y-255244D01*
X14947525Y-245450D01*
X15021310Y-81763D01*
X15046572Y96000D01*
X15046572Y421500D01*
X15197698Y421500D01*
X15349461Y186009D01*
X15572197Y-44640D01*
X15703673Y-136018D01*
X15681192Y-198087D01*
X16637000Y-1153895D01*
X17592808Y-198087D01*
X17570830Y-137408D01*
X17648477Y-88132D01*
X17880676Y132988D01*
X18065503Y394997D01*
X18195919Y687917D01*
X18201500Y712482D01*
X18201500Y-854969D01*
X18201500Y-854969D01*
G37*
X18201500Y-854969D02*
X18129795Y-647412D01*
X18036814Y-473456D01*
X17772413Y-377692D01*
X16816605Y-1333500D01*
X17772413Y-2289308D01*
X18036814Y-2193544D01*
X18177704Y-1903929D01*
X18201500Y-1813168D01*
X18201500Y-3378531D01*
X18087604Y-3102200D01*
X17910165Y-2835132D01*
X17684231Y-2607615D01*
X17570384Y-2530825D01*
X17592808Y-2468913D01*
X16637000Y-1513105D01*
X15681192Y-2468913D01*
X15703448Y-2530360D01*
X15607546Y-2593117D01*
X15378457Y-2817457D01*
X15197306Y-3082022D01*
X15194530Y-3088500D01*
X14930158Y-3088500D01*
X14160502Y-2318844D01*
X14160502Y-2280252D01*
X14319250Y-2439000D01*
X14471042Y-2439000D01*
X14593723Y-2414597D01*
X14709285Y-2366730D01*
X14813289Y-2297237D01*
X14901737Y-2208789D01*
X14971230Y-2104785D01*
X15019097Y-1989223D01*
X15043500Y-1866542D01*
X15043500Y-1728088D01*
X15144205Y-2019588D01*
X15237186Y-2193544D01*
X15501587Y-2289308D01*
X16457395Y-1333500D01*
X15501587Y-377692D01*
X15237186Y-473456D01*
X15096296Y-763071D01*
X15014616Y-1074608D01*
X15014472Y-1076998D01*
X14884752Y-1076998D01*
X15043500Y-918250D01*
X15043500Y-541458D01*
X15019097Y-418777D01*
X14971230Y-303215D01*
X14939177Y-255244D01*
X14947525Y-245450D01*
X15021310Y-81763D01*
X15046572Y96000D01*
X15046572Y421500D01*
X15197698Y421500D01*
X15349461Y186009D01*
X15572197Y-44640D01*
X15703673Y-136018D01*
X15681192Y-198087D01*
X16637000Y-1153895D01*
X17592808Y-198087D01*
X17570830Y-137408D01*
X17648477Y-88132D01*
X17880676Y132988D01*
X18065503Y394997D01*
X18195919Y687917D01*
X18201500Y712482D01*
X18201500Y-854969D01*
G36*
X-7205000Y3393351D02*
X-7205000Y-946000D01*
X-7197922Y-1018183D01*
X-7191604Y-1090402D01*
X-7190453Y-1094364D01*
X-7190050Y-1098474D01*
X-7169079Y-1167935D01*
X-7148861Y-1237524D01*
X-7146963Y-1241186D01*
X-7145769Y-1245140D01*
X-7111740Y-1309138D01*
X-7078357Y-1373542D01*
X-7075778Y-1376772D01*
X-7073843Y-1380412D01*
X-7028010Y-1436609D01*
X-6982774Y-1493274D01*
X-6977110Y-1499018D01*
X-6977013Y-1499138D01*
X-6976903Y-1499229D01*
X-6975079Y-1501079D01*
X-6405000Y-2071158D01*
X-6405000Y-2494428D01*
X-6695000Y-2494428D01*
X-6796121Y-2502492D01*
X-6825102Y-2511467D01*
X-6945000Y-2494428D01*
X-7495000Y-2494428D01*
X-7596121Y-2502492D01*
X-7620073Y-2509909D01*
X-7682458Y-2497500D01*
X-7734250Y-2497500D01*
X-7840123Y-2603373D01*
X-7917559Y-2654400D01*
X-8022423Y-2777437D01*
X-8066900Y-2709941D01*
X-8203550Y-2593475D01*
X-8214884Y-2588366D01*
X-8305750Y-2497500D01*
X-8357542Y-2497500D01*
X-8426651Y-2511247D01*
X-8545000Y-2494428D01*
X-9095000Y-2494428D01*
X-9196121Y-2502492D01*
X-9225102Y-2511467D01*
X-9345000Y-2494428D01*
X-9895000Y-2494428D01*
X-9996121Y-2502492D01*
X-10025102Y-2511467D01*
X-10145000Y-2494428D01*
X-10431928Y-2494428D01*
X-10431928Y-2207500D01*
X-10439992Y-2106379D01*
X-10448967Y-2077398D01*
X-10431928Y-1957500D01*
X-10431928Y-1407500D01*
X-10439992Y-1306379D01*
X-10448967Y-1277398D01*
X-10431928Y-1157500D01*
X-10431928Y-607500D01*
X-10439992Y-506379D01*
X-10448967Y-477398D01*
X-10431928Y-357500D01*
X-10431928Y192500D01*
X-10439992Y293621D01*
X-10448967Y322602D01*
X-10431928Y442500D01*
X-10431928Y992500D01*
X-10439992Y1093621D01*
X-10448967Y1122602D01*
X-10431928Y1242500D01*
X-10431928Y1792500D01*
X-10439992Y1893621D01*
X-10448967Y1922602D01*
X-10431928Y2042500D01*
X-10431928Y2592500D01*
X-10439992Y2693621D01*
X-10448967Y2722602D01*
X-10431928Y2842500D01*
X-10431928Y3129428D01*
X-10145000Y3129428D01*
X-10043879Y3137492D01*
X-10014898Y3146467D01*
X-9895000Y3129428D01*
X-9345000Y3129428D01*
X-9243879Y3137492D01*
X-9219927Y3144909D01*
X-9157542Y3132500D01*
X-9105750Y3132500D01*
X-8999877Y3238373D01*
X-8922441Y3289400D01*
X-8817577Y3412437D01*
X-8773100Y3344941D01*
X-8636450Y3228475D01*
X-8625116Y3223366D01*
X-8534250Y3132500D01*
X-8482458Y3132500D01*
X-8413349Y3146247D01*
X-8295000Y3129428D01*
X-7745000Y3129428D01*
X-7643879Y3137492D01*
X-7619927Y3144909D01*
X-7557542Y3132500D01*
X-7505750Y3132500D01*
X-7399877Y3238373D01*
X-7322441Y3289400D01*
X-7217577Y3412437D01*
X-7205000Y3393351D01*
X-7205000Y3393351D01*
G37*
X-7205000Y3393351D02*
X-7205000Y-946000D01*
X-7197922Y-1018183D01*
X-7191604Y-1090402D01*
X-7190453Y-1094364D01*
X-7190050Y-1098474D01*
X-7169079Y-1167935D01*
X-7148861Y-1237524D01*
X-7146963Y-1241186D01*
X-7145769Y-1245140D01*
X-7111740Y-1309138D01*
X-7078357Y-1373542D01*
X-7075778Y-1376772D01*
X-7073843Y-1380412D01*
X-7028010Y-1436609D01*
X-6982774Y-1493274D01*
X-6977110Y-1499018D01*
X-6977013Y-1499138D01*
X-6976903Y-1499229D01*
X-6975079Y-1501079D01*
X-6405000Y-2071158D01*
X-6405000Y-2494428D01*
X-6695000Y-2494428D01*
X-6796121Y-2502492D01*
X-6825102Y-2511467D01*
X-6945000Y-2494428D01*
X-7495000Y-2494428D01*
X-7596121Y-2502492D01*
X-7620073Y-2509909D01*
X-7682458Y-2497500D01*
X-7734250Y-2497500D01*
X-7840123Y-2603373D01*
X-7917559Y-2654400D01*
X-8022423Y-2777437D01*
X-8066900Y-2709941D01*
X-8203550Y-2593475D01*
X-8214884Y-2588366D01*
X-8305750Y-2497500D01*
X-8357542Y-2497500D01*
X-8426651Y-2511247D01*
X-8545000Y-2494428D01*
X-9095000Y-2494428D01*
X-9196121Y-2502492D01*
X-9225102Y-2511467D01*
X-9345000Y-2494428D01*
X-9895000Y-2494428D01*
X-9996121Y-2502492D01*
X-10025102Y-2511467D01*
X-10145000Y-2494428D01*
X-10431928Y-2494428D01*
X-10431928Y-2207500D01*
X-10439992Y-2106379D01*
X-10448967Y-2077398D01*
X-10431928Y-1957500D01*
X-10431928Y-1407500D01*
X-10439992Y-1306379D01*
X-10448967Y-1277398D01*
X-10431928Y-1157500D01*
X-10431928Y-607500D01*
X-10439992Y-506379D01*
X-10448967Y-477398D01*
X-10431928Y-357500D01*
X-10431928Y192500D01*
X-10439992Y293621D01*
X-10448967Y322602D01*
X-10431928Y442500D01*
X-10431928Y992500D01*
X-10439992Y1093621D01*
X-10448967Y1122602D01*
X-10431928Y1242500D01*
X-10431928Y1792500D01*
X-10439992Y1893621D01*
X-10448967Y1922602D01*
X-10431928Y2042500D01*
X-10431928Y2592500D01*
X-10439992Y2693621D01*
X-10448967Y2722602D01*
X-10431928Y2842500D01*
X-10431928Y3129428D01*
X-10145000Y3129428D01*
X-10043879Y3137492D01*
X-10014898Y3146467D01*
X-9895000Y3129428D01*
X-9345000Y3129428D01*
X-9243879Y3137492D01*
X-9219927Y3144909D01*
X-9157542Y3132500D01*
X-9105750Y3132500D01*
X-8999877Y3238373D01*
X-8922441Y3289400D01*
X-8817577Y3412437D01*
X-8773100Y3344941D01*
X-8636450Y3228475D01*
X-8625116Y3223366D01*
X-8534250Y3132500D01*
X-8482458Y3132500D01*
X-8413349Y3146247D01*
X-8295000Y3129428D01*
X-7745000Y3129428D01*
X-7643879Y3137492D01*
X-7619927Y3144909D01*
X-7557542Y3132500D01*
X-7505750Y3132500D01*
X-7399877Y3238373D01*
X-7322441Y3289400D01*
X-7217577Y3412437D01*
X-7205000Y3393351D01*
G36*
X14160500Y-1077000D02*
X14180500Y-1077000D01*
X14180500Y-1331000D01*
X14160500Y-1331000D01*
X14160500Y-1351000D01*
X13906500Y-1351000D01*
X13906500Y-1331000D01*
X13886500Y-1331000D01*
X13886500Y-1077000D01*
X13906500Y-1077000D01*
X13906500Y-1057000D01*
X14160500Y-1057000D01*
X14160500Y-1077000D01*
X14160500Y-1077000D01*
G37*
X14160500Y-1077000D02*
X14180500Y-1077000D01*
X14180500Y-1331000D01*
X14160500Y-1331000D01*
X14160500Y-1351000D01*
X13906500Y-1351000D01*
X13906500Y-1331000D01*
X13886500Y-1331000D01*
X13886500Y-1077000D01*
X13906500Y-1077000D01*
X13906500Y-1057000D01*
X14160500Y-1057000D01*
X14160500Y-1077000D01*
G36*
X1430139Y5423476D02*
X1432037Y5419814D01*
X1433231Y5415860D01*
X1467260Y5351862D01*
X1500643Y5287458D01*
X1503222Y5284228D01*
X1505157Y5280588D01*
X1550990Y5224391D01*
X1596226Y5167726D01*
X1601890Y5161982D01*
X1601987Y5161862D01*
X1602097Y5161771D01*
X1603921Y5159921D01*
X1794421Y4969421D01*
X1850466Y4923385D01*
X1906001Y4876786D01*
X1909617Y4874798D01*
X1912808Y4872177D01*
X1976745Y4837894D01*
X2040256Y4802979D01*
X2044188Y4801732D01*
X2047828Y4799780D01*
X2117183Y4778576D01*
X2186289Y4756654D01*
X2190392Y4756194D01*
X2194339Y4754987D01*
X2266538Y4747653D01*
X2338540Y4739577D01*
X2346599Y4739520D01*
X2346760Y4739504D01*
X2346910Y4739518D01*
X2349500Y4739500D01*
X3738842Y4739500D01*
X5154928Y3323414D01*
X5154928Y3042500D01*
X5162992Y2941379D01*
X5216106Y2769866D01*
X5314900Y2619941D01*
X5451550Y2503475D01*
X5615237Y2429690D01*
X5631802Y2427336D01*
X5625928Y2386000D01*
X5625928Y2050679D01*
X5553950Y2112025D01*
X5390263Y2185810D01*
X5212500Y2211072D01*
X4312500Y2211072D01*
X4211379Y2203008D01*
X4195669Y2198143D01*
X4265737Y2268211D01*
X4335230Y2372215D01*
X4383097Y2487777D01*
X4407500Y2610458D01*
X4407500Y2762250D01*
X4248750Y2921000D01*
X3299500Y2921000D01*
X3299500Y2901000D01*
X3045500Y2901000D01*
X3045500Y2921000D01*
X3025500Y2921000D01*
X3025500Y3175000D01*
X3045500Y3175000D01*
X3045500Y3899250D01*
X3299500Y3899250D01*
X3299500Y3175000D01*
X4248750Y3175000D01*
X4407500Y3333750D01*
X4407500Y3485542D01*
X4383097Y3608223D01*
X4335230Y3723785D01*
X4265737Y3827789D01*
X4177289Y3916237D01*
X4073285Y3985730D01*
X3957723Y4033597D01*
X3835042Y4058000D01*
X3458250Y4058000D01*
X3299500Y3899250D01*
X3045500Y3899250D01*
X2886750Y4058000D01*
X2509958Y4058000D01*
X2387277Y4033597D01*
X2271715Y3985730D01*
X2223744Y3953677D01*
X2213950Y3962025D01*
X2050263Y4035810D01*
X1872500Y4061072D01*
X912000Y4061072D01*
X912000Y5082964D01*
X1202337Y5452428D01*
X1421728Y5452428D01*
X1430139Y5423476D01*
X1430139Y5423476D01*
G37*
X1430139Y5423476D02*
X1432037Y5419814D01*
X1433231Y5415860D01*
X1467260Y5351862D01*
X1500643Y5287458D01*
X1503222Y5284228D01*
X1505157Y5280588D01*
X1550990Y5224391D01*
X1596226Y5167726D01*
X1601890Y5161982D01*
X1601987Y5161862D01*
X1602097Y5161771D01*
X1603921Y5159921D01*
X1794421Y4969421D01*
X1850466Y4923385D01*
X1906001Y4876786D01*
X1909617Y4874798D01*
X1912808Y4872177D01*
X1976745Y4837894D01*
X2040256Y4802979D01*
X2044188Y4801732D01*
X2047828Y4799780D01*
X2117183Y4778576D01*
X2186289Y4756654D01*
X2190392Y4756194D01*
X2194339Y4754987D01*
X2266538Y4747653D01*
X2338540Y4739577D01*
X2346599Y4739520D01*
X2346760Y4739504D01*
X2346910Y4739518D01*
X2349500Y4739500D01*
X3738842Y4739500D01*
X5154928Y3323414D01*
X5154928Y3042500D01*
X5162992Y2941379D01*
X5216106Y2769866D01*
X5314900Y2619941D01*
X5451550Y2503475D01*
X5615237Y2429690D01*
X5631802Y2427336D01*
X5625928Y2386000D01*
X5625928Y2050679D01*
X5553950Y2112025D01*
X5390263Y2185810D01*
X5212500Y2211072D01*
X4312500Y2211072D01*
X4211379Y2203008D01*
X4195669Y2198143D01*
X4265737Y2268211D01*
X4335230Y2372215D01*
X4383097Y2487777D01*
X4407500Y2610458D01*
X4407500Y2762250D01*
X4248750Y2921000D01*
X3299500Y2921000D01*
X3299500Y2901000D01*
X3045500Y2901000D01*
X3045500Y2921000D01*
X3025500Y2921000D01*
X3025500Y3175000D01*
X3045500Y3175000D01*
X3045500Y3899250D01*
X3299500Y3899250D01*
X3299500Y3175000D01*
X4248750Y3175000D01*
X4407500Y3333750D01*
X4407500Y3485542D01*
X4383097Y3608223D01*
X4335230Y3723785D01*
X4265737Y3827789D01*
X4177289Y3916237D01*
X4073285Y3985730D01*
X3957723Y4033597D01*
X3835042Y4058000D01*
X3458250Y4058000D01*
X3299500Y3899250D01*
X3045500Y3899250D01*
X2886750Y4058000D01*
X2509958Y4058000D01*
X2387277Y4033597D01*
X2271715Y3985730D01*
X2223744Y3953677D01*
X2213950Y3962025D01*
X2050263Y4035810D01*
X1872500Y4061072D01*
X912000Y4061072D01*
X912000Y5082964D01*
X1202337Y5452428D01*
X1421728Y5452428D01*
X1430139Y5423476D01*
G36*
X9209500Y4577500D02*
X8878750Y4577500D01*
X8720000Y4418750D01*
X8720000Y3619500D01*
X8740000Y3619500D01*
X8740000Y3365500D01*
X8720000Y3365500D01*
X8720000Y3345500D01*
X8466000Y3345500D01*
X8466000Y3365500D01*
X8446000Y3365500D01*
X8446000Y3619500D01*
X8466000Y3619500D01*
X8466000Y4418750D01*
X8307250Y4577500D01*
X7930458Y4577500D01*
X7807777Y4553097D01*
X7692215Y4505230D01*
X7588211Y4435737D01*
X7499763Y4347289D01*
X7491227Y4334515D01*
X7471100Y4365059D01*
X7334450Y4481525D01*
X7170763Y4555310D01*
X7153000Y4557834D01*
X7153000Y4744698D01*
X8188802Y5780500D01*
X9209500Y5780500D01*
X9209500Y4577500D01*
X9209500Y4577500D01*
G37*
X9209500Y4577500D02*
X8878750Y4577500D01*
X8720000Y4418750D01*
X8720000Y3619500D01*
X8740000Y3619500D01*
X8740000Y3365500D01*
X8720000Y3365500D01*
X8720000Y3345500D01*
X8466000Y3345500D01*
X8466000Y3365500D01*
X8446000Y3365500D01*
X8446000Y3619500D01*
X8466000Y3619500D01*
X8466000Y4418750D01*
X8307250Y4577500D01*
X7930458Y4577500D01*
X7807777Y4553097D01*
X7692215Y4505230D01*
X7588211Y4435737D01*
X7499763Y4347289D01*
X7491227Y4334515D01*
X7471100Y4365059D01*
X7334450Y4481525D01*
X7170763Y4555310D01*
X7153000Y4557834D01*
X7153000Y4744698D01*
X8188802Y5780500D01*
X9209500Y5780500D01*
X9209500Y4577500D01*
G36*
X-8353182Y7624024D02*
X-8368134Y7619394D01*
X-8442537Y7570366D01*
X-8494715Y7605230D01*
X-8610277Y7653097D01*
X-8732958Y7677500D01*
X-9109750Y7677500D01*
X-9268500Y7518750D01*
X-9268500Y6794500D01*
X-9248500Y6794500D01*
X-9248500Y6540500D01*
X-9268500Y6540500D01*
X-9268500Y6520500D01*
X-9522500Y6520500D01*
X-9522500Y6540500D01*
X-10471750Y6540500D01*
X-10630500Y6381750D01*
X-10630500Y6229958D01*
X-10606097Y6107277D01*
X-10563970Y6005572D01*
X-10695000Y6005572D01*
X-10796121Y5997508D01*
X-10967634Y5944394D01*
X-11117559Y5845600D01*
X-11234025Y5708950D01*
X-11307810Y5545263D01*
X-11333072Y5367500D01*
X-11333072Y5352500D01*
X-12009694Y5352500D01*
X-12680259Y6023065D01*
X-12209325Y5751171D01*
X-12117720Y5707593D01*
X-11942628Y5667835D01*
X-11763392Y5678431D01*
X-11594205Y5738540D01*
X-11448461Y5843405D01*
X-11337703Y5984721D01*
X-10737703Y7023951D01*
X-10699127Y7105042D01*
X-10630500Y7105042D01*
X-10630500Y6953250D01*
X-10471750Y6794500D01*
X-9522500Y6794500D01*
X-9522500Y7518750D01*
X-9681250Y7677500D01*
X-10058042Y7677500D01*
X-10180723Y7653097D01*
X-10296285Y7605230D01*
X-10400289Y7535737D01*
X-10488737Y7447289D01*
X-10558230Y7343285D01*
X-10606097Y7227723D01*
X-10630500Y7105042D01*
X-10699127Y7105042D01*
X-10694125Y7115556D01*
X-10654367Y7290648D01*
X-10664963Y7469883D01*
X-10704531Y7581255D01*
X-10663392Y7583687D01*
X-10494205Y7643796D01*
X-10348461Y7748661D01*
X-10237703Y7889977D01*
X-10076824Y8168628D01*
X-8897786Y8168628D01*
X-8353182Y7624024D01*
X-8353182Y7624024D01*
G37*
X-8353182Y7624024D02*
X-8368134Y7619394D01*
X-8442537Y7570366D01*
X-8494715Y7605230D01*
X-8610277Y7653097D01*
X-8732958Y7677500D01*
X-9109750Y7677500D01*
X-9268500Y7518750D01*
X-9268500Y6794500D01*
X-9248500Y6794500D01*
X-9248500Y6540500D01*
X-9268500Y6540500D01*
X-9268500Y6520500D01*
X-9522500Y6520500D01*
X-9522500Y6540500D01*
X-10471750Y6540500D01*
X-10630500Y6381750D01*
X-10630500Y6229958D01*
X-10606097Y6107277D01*
X-10563970Y6005572D01*
X-10695000Y6005572D01*
X-10796121Y5997508D01*
X-10967634Y5944394D01*
X-11117559Y5845600D01*
X-11234025Y5708950D01*
X-11307810Y5545263D01*
X-11333072Y5367500D01*
X-11333072Y5352500D01*
X-12009694Y5352500D01*
X-12680259Y6023065D01*
X-12209325Y5751171D01*
X-12117720Y5707593D01*
X-11942628Y5667835D01*
X-11763392Y5678431D01*
X-11594205Y5738540D01*
X-11448461Y5843405D01*
X-11337703Y5984721D01*
X-10737703Y7023951D01*
X-10699127Y7105042D01*
X-10630500Y7105042D01*
X-10630500Y6953250D01*
X-10471750Y6794500D01*
X-9522500Y6794500D01*
X-9522500Y7518750D01*
X-9681250Y7677500D01*
X-10058042Y7677500D01*
X-10180723Y7653097D01*
X-10296285Y7605230D01*
X-10400289Y7535737D01*
X-10488737Y7447289D01*
X-10558230Y7343285D01*
X-10606097Y7227723D01*
X-10630500Y7105042D01*
X-10699127Y7105042D01*
X-10694125Y7115556D01*
X-10654367Y7290648D01*
X-10664963Y7469883D01*
X-10704531Y7581255D01*
X-10663392Y7583687D01*
X-10494205Y7643796D01*
X-10348461Y7748661D01*
X-10237703Y7889977D01*
X-10076824Y8168628D01*
X-8897786Y8168628D01*
X-8353182Y7624024D01*
G36*
X7853140Y10757058D02*
X7853140Y10309122D01*
X7712710Y10309122D01*
X7611589Y10301058D01*
X7440076Y10247944D01*
X7290151Y10149150D01*
X7173685Y10012500D01*
X7141171Y9940369D01*
X6987540Y10094000D01*
X5737860Y10094000D01*
X5737860Y10074000D01*
X5483860Y10074000D01*
X5483860Y10094000D01*
X5463860Y10094000D01*
X5463860Y10348000D01*
X5483860Y10348000D01*
X5483860Y11097300D01*
X5737860Y11097300D01*
X5737860Y10348000D01*
X6987540Y10348000D01*
X7146290Y10506750D01*
X7146290Y10683592D01*
X7121887Y10806273D01*
X7074020Y10921835D01*
X7004527Y11025839D01*
X6916079Y11114287D01*
X6812075Y11183780D01*
X6696513Y11231647D01*
X6573832Y11256050D01*
X5896610Y11256050D01*
X5737860Y11097300D01*
X5483860Y11097300D01*
X5375481Y11205679D01*
X6173302Y12003500D01*
X6606698Y12003500D01*
X7853140Y10757058D01*
X7853140Y10757058D01*
G37*
X7853140Y10757058D02*
X7853140Y10309122D01*
X7712710Y10309122D01*
X7611589Y10301058D01*
X7440076Y10247944D01*
X7290151Y10149150D01*
X7173685Y10012500D01*
X7141171Y9940369D01*
X6987540Y10094000D01*
X5737860Y10094000D01*
X5737860Y10074000D01*
X5483860Y10074000D01*
X5483860Y10094000D01*
X5463860Y10094000D01*
X5463860Y10348000D01*
X5483860Y10348000D01*
X5483860Y11097300D01*
X5737860Y11097300D01*
X5737860Y10348000D01*
X6987540Y10348000D01*
X7146290Y10506750D01*
X7146290Y10683592D01*
X7121887Y10806273D01*
X7074020Y10921835D01*
X7004527Y11025839D01*
X6916079Y11114287D01*
X6812075Y11183780D01*
X6696513Y11231647D01*
X6573832Y11256050D01*
X5896610Y11256050D01*
X5737860Y11097300D01*
X5483860Y11097300D01*
X5375481Y11205679D01*
X6173302Y12003500D01*
X6606698Y12003500D01*
X7853140Y10757058D01*
M02*
